<svg id="layer" xmlns="http://www.w3.org/2000/svg" xmlns:xlink="http://www.w3.org/1999/xlink" viewBox="0 0 512 515.02"><defs><style>.cls-1{fill:#7011f5;}.cls-2{fill:url(#linear-gradient);}.cls-3{stroke:#fff;fill:url(#linear-gradient-2);}</style><linearGradient id="linear-gradient" x1="51.55" y1="496.54" x2="498.95" y2="141.39" gradientTransform="matrix(1, 0, 0, -1, 0, 538.23)" gradientUnits="userSpaceOnUse"><stop offset="0" stop-color="#9013fe"/><stop offset="1" stop-color="#6610f2"/></linearGradient><linearGradient id="linear-gradient-2" x1="189.15" y1="425.91" x2="289.15" y2="256.78" gradientTransform="matrix(1, 0, 0, -1, 0, 538.23)" gradientUnits="userSpaceOnUse"><stop offset="0" stop-color="#fff"/><stop offset="1" stop-color="#f1e5fc"/></linearGradient></defs><path id="Shape" class="cls-1" d="M54.57,432.42a2.92,2.92,0,0,1,.9-.2c11.2,0,22.3,0,33.5.2a18,18,0,0,1,10.4,3.7c7.1,5.2,7.8,19.9-2,25.2-.5.3-1,.5-1.7.9a42.1,42.1,0,0,1,5.2,2.5c5.9,4,8.3,12.9,5.6,20.7-2.3,6.8-7.8,9.7-14.1,11.2a35,35,0,0,1-6.4.8c-10.4.1-20.9,0-31.4,0Zm11.1,55.5c7.8,0,15.3.2,22.8-.1,4.7-.2,8.1-5.3,7.9-10.3s-3.3-9.2-7.9-9.4c-7.5-.4-14.9-.3-22.4-.3-.1,0-.2.2-.4.3Zm.1-28.6c6.9,0,13.6.3,20.3-.1,4.9-.3,7.7-4.2,7.5-9.7-.2-4.8-3-7.7-8-7.9-6.3-.2-12.6-.1-19-.1a2.35,2.35,0,0,0-.8.2v17.6Zm345.6-8.9h9.3v5.1c1-.8,2.3-1.7,3.5-2.7,7.1-6.2,24-5.5,29.8,7.1,5,10.8,4.8,21.7-2,31.7-3.7,5.6-9.5,7.6-16,7.2-5.7-.3-10.7-2.1-14.6-7.5V515h-10Zm9.4,23.8a55.52,55.52,0,0,0,1.3,7.1c1.4,5.1,5.8,8.9,10.4,9.3,6.1.4,10.5-1.9,12.7-7.4,2.8-7,2.7-14.1-1.4-20.6a11.84,11.84,0,0,0-20.5,1,22.68,22.68,0,0,0-2.5,10.6Zm-16,16.5c0,1.9.1,3.9,0,5.9,0,.5-.6,1.3-1,1.3-2.9.2-5.8.7-8.7.4-2.5-.3-3.9-2.5-4.7-5-6,5-12.9,6-20.2,5.1-6.1-.8-11.2-5.9-11.6-11.6-.6-7.8,2.3-12.9,9.2-14.8,4.8-1.3,9.9-1.8,14.8-2.7,1.2-.2,2.4-.4,3.6-.7,2.3-.6,3.9-1.9,4-4.5a5.37,5.37,0,0,0-3.3-5.8,15.47,15.47,0,0,0-12.8.3c-1.9.9-3,2.7-4,5.9h-9.8a13.77,13.77,0,0,1,3.8-9.7c3.3-3.6,7.6-5,12.2-5.4,4.8-.5,9.6-.5,14.3,1.1,6.3,2.2,9.3,6.4,9.3,13.2v21.6c-.1,5-.1,5,4.9,5.4Zm-15.2-16.2c-3.1.5-5.9,1-8.7,1.6a65.18,65.18,0,0,0-8.7,2.2c-2.7,1-3.7,3.6-3.6,6.4s1.9,4.2,4.2,5a14.85,14.85,0,0,0,11.7-.6c2.7-1.3,4.8-3.4,5-6.6a71.47,71.47,0,0,0,.1-8ZM137.47,449c15.4-.2,24.4,11.3,23.4,26.9a25,25,0,0,1-5.3,14.8,20.73,20.73,0,0,1-14.5,7.7,25.23,25.23,0,0,1-14.1-1.9c-6.7-3.1-10.6-8.5-12.2-15.8a30.86,30.86,0,0,1,.2-14.8C117.77,455.22,126,449.12,137.47,449Zm-13.4,25c.4,2.3.6,4.6,1.2,6.9,1.6,5.7,6,9.4,11,9.7,6.2.3,10.5-2.4,12.9-8.2a21.68,21.68,0,0,0-.2-17.3c-3.7-8.4-13.6-10.6-20-4.3C125.27,464.22,124.37,468.92,124.07,474Zm66.7-25c13.9,0,23.3,9.5,23.5,23.7.1,6-.9,11.7-4.3,16.7-4.9,7.2-12,9.7-20.2,9.3a25.57,25.57,0,0,1-9-2c-6.6-2.6-10.6-7.9-12.3-14.8a32.22,32.22,0,0,1,.6-18.2C172,454.52,180.27,449,190.77,449Zm13.3,23.7a39.19,39.19,0,0,0-1.1-6c-1.7-5.8-6.2-9.4-11.8-9.6a12.21,12.21,0,0,0-12.1,8.5c-2.4,6.6-2.2,13.1,1.4,19.2a12,12,0,0,0,18.1,3c4.3-3.6,5.3-8.6,5.5-15.1Zm85.7-9.2h-9.3a1.44,1.44,0,0,1-1.1-.7c-1.7-4.9-5.8-5.5-10-5.5a13.48,13.48,0,0,0-5.2,1.1c-3.5,1.5-3.8,5.5-.6,7.4a36.47,36.47,0,0,0,7.4,2.8c3.6,1,7.3,1.7,10.9,2.7,9.1,2.8,12.7,12.1,7.6,19.8-2.4,3.7-6.1,5.7-10.3,6.7-6.2,1.5-12.4,1.6-18.4-.6-6.5-2.4-9.9-7.2-10.4-14.4h9.9c2.8,7.5,10.8,10.4,18.2,6.6,1.7-.9,2.9-2.1,3-4.2s-.7-4.1-2.7-4.9c-3.5-1.3-7.1-2.2-10.7-3.3a81.81,81.81,0,0,1-8.8-2.7c-5.5-2.2-7.9-6-7.9-11.9a11.72,11.72,0,0,1,8.1-11.3c7.1-2.6,14.4-3,21.5-.1,4.8,1.9,7.7,5.7,8.9,10.8C289.87,462.22,289.77,462.72,289.77,463.52Zm-53.7-13.3h9.2v7.6h-9a18.55,18.55,0,0,0-.1,2.2v23.1c0,1,.1,2.1.2,3.1a3.42,3.42,0,0,0,3.3,3.4c1.8.1,3.7,0,5.7,0v7.6a26.43,26.43,0,0,1-12.5.1c-4.8-1.1-6.7-4.5-6.8-10.8-.1-8.7,0-17.3,0-26V458h-7.6v-7.7H226v-14.1h10.3C236.07,440.82,236.07,445.42,236.07,450.22Zm85.6,47.4c-3.9,0-7.7.1-11.4,0a7.66,7.66,0,0,1-7.2-6.2,33.76,33.76,0,0,1-.7-6.3c-.1-8.1,0-16.3,0-24.4v-2.6h-7.6v-7.6h7.5v-14.2h10.3v14h9.1V458H313a13.7,13.7,0,0,0-.2,1.6v24.9c0,4.4,1.2,5.4,5.4,5.4h3.6l-.1,7.7Zm17.1-47.2v8c3.9-6.8,9.4-10.4,17.5-9.2v9.9c-3.8-.6-7.5-.7-10.8,1.7-4.3,3.1-5.8,7.8-5.9,12.8-.2,7.8,0,15.7,0,23.7h-10.1v-47C332.47,450.42,335.47,450.42,338.77,450.42Z"/><path class="cls-2" d="M56.48,53.32C55.51,25.58,77.13,0,106.34,0H405.7c29.21,0,50.82,25.58,49.86,53.32-.93,26.65.27,61.17,9,89.31S487.93,188.71,512,191v26c-24.07,2.29-38.77,20.14-47.48,48.37s-9.89,62.66-9,89.31c1,27.74-20.65,53.32-49.86,53.32H106.34c-29.21,0-50.82-25.58-49.86-53.32.93-26.65-.28-61.16-9-89.31S24.07,219.29,0,217V191c24.07-2.29,38.8-20.14,47.52-48.37S57.41,80,56.48,53.32Z"/><path class="cls-3" d="M267.1,312.46c47.3,0,75.8-23.16,75.8-61.36,0-28.87-20.33-49.77-50.53-53.08v-1.21C314.55,193.21,332,172.6,332,149.6c0-32.79-25.88-54.14-65.32-54.14H177.9v217ZM212.41,123h45.91c25,0,39.13,11.13,39.13,31.28,0,21.5-16.48,33.53-46.37,33.53H212.41Zm0,162V213.51H258c32.66,0,49.61,12,49.61,35.49s-16.48,35.94-47.6,35.94Z"/></svg>