<svg id="Layer_1" data-name="Layer 1" xmlns="http://www.w3.org/2000/svg" viewBox="0 0 480 480"><defs><style>.cls-1{fill:#f7df1e;}</style></defs><path class="cls-1" d="M480,480H0V0H480ZM285.36,396.13c6.64,13.09,15.47,23.34,27.1,31,23.09,15.24,48.68,18.47,75.23,13.8,48-8.46,62.75-46.24,52.27-83.19-5.06-17.84-18-29.4-33.67-37.77-12.59-6.73-25.92-12.07-38.75-18.38-5.93-2.92-11.91-6.09-17.06-10.18C344,286.27,342.8,278.78,345,271s7.78-11.75,15.49-13c11.88-1.89,21.69,1.62,28.92,11.49,1.66,2.26,3.23,4.58,5.11,7.26L429.84,254c-6.47-11.49-14.26-20.62-25-27.06-15-9-31.5-10.68-48.27-9-23.71,2.31-42.73,12.69-52.79,35.45C292.23,279.58,300,311.12,323,328.31c9.63,7.18,20.87,12.28,31.63,17.82,9.75,5,20,9.1,29.74,14.13,6.56,3.38,11.58,8.51,12.41,16.44,1.29,12.25-5.64,21-18.88,24.07-20.41,4.68-39-2.65-51.46-20.3-1.32-1.86-2.58-3.76-4-5.88ZM126,401c6.91,14.58,16.71,25.72,30.57,33.09,15.27,8.11,31.69,9.42,48.54,8,27.06-2.21,47-18.09,53.54-43.48A98,98,0,0,0,261.69,375c.27-50,.1-100,.24-150,0-4.34-1.67-5.29-5.61-5.21-11.32.2-22.66.06-34,.07-6.51,0-6.52,0-6.52,6.56V369.89c0,3.17.06,6.34-.13,9.5-.86,14-7.47,21.28-20.09,22.31-10.26.84-18.66-2.59-24.7-11.11-2.75-3.87-5.31-7.88-8-12Z"/><path d="M285.36,396.13l37.08-21.54c1.46,2.12,2.72,4,4,5.88,12.45,17.65,31,25,51.46,20.3,13.24-3,20.17-11.82,18.88-24.07-.83-7.93-5.85-13.06-12.41-16.44-9.75-5-20-9.1-29.74-14.13-10.76-5.54-22-10.64-31.63-17.82-23-17.19-30.81-48.73-19.23-74.94,10.06-22.76,29.08-33.14,52.79-35.45,16.77-1.64,33.3,0,48.27,9,10.71,6.44,18.5,15.57,25,27.06L394.5,276.76c-1.88-2.68-3.45-5-5.11-7.26-7.23-9.87-17-13.38-28.92-11.49-7.71,1.23-13.33,5.25-15.49,13s-1,15.28,5.5,20.44c5.15,4.09,11.13,7.26,17.06,10.18,12.83,6.31,26.16,11.65,38.75,18.38C422,328.36,434.9,339.92,440,357.76c10.48,36.95-4.25,74.73-52.27,83.19-26.55,4.67-52.14,1.44-75.23-13.8C300.83,419.47,292,409.22,285.36,396.13Z"/><path d="M126,401l36.89-22.39c2.74,4.1,5.3,8.11,8,12,6,8.52,14.44,12,24.7,11.11,12.62-1,19.23-8.34,20.09-22.31.19-3.16.13-6.33.13-9.5V226.41c0-6.55,0-6.56,6.52-6.56,11.33,0,22.67.13,34-.07,3.94-.08,5.62.87,5.61,5.21-.14,50,0,100-.24,150a98,98,0,0,1-3.09,23.67c-6.53,25.39-26.48,41.27-53.54,43.48-16.85,1.38-33.27.07-48.54-8C142.66,426.72,132.86,415.58,126,401Z"/></svg>