<svg id="Layer_1" data-name="Layer 1" xmlns="http://www.w3.org/2000/svg" xmlns:xlink="http://www.w3.org/1999/xlink" viewBox="0 0 497.41 261.36"><defs><style>.cls-1{fill:none;}.cls-2{fill:#010101;}.cls-3{fill:#fdce00;}.cls-4{fill:#fdbc00;}.cls-5{fill:#feca00;}.cls-6{fill:#fec500;}.cls-7{fill:#fdc000;}.cls-8{fill:#fdb300;}.cls-9{fill:#fe9300;}.cls-10{fill:#fd7901;}.cls-11{fill:#fdae00;}.cls-12{fill:#fe9901;}.cls-13{fill:#fdb700;}.cls-14{fill:#fea101;}.cls-15{fill:#fe8e01;}.cls-16{fill:#020202;}.cls-17{fill:#fd7f00;}.cls-18{fill:#feab00;}.cls-19{fill:#fd4f01;}.cls-20{fill:#fe9c00;}.cls-21{fill:#fe8801;}.cls-22{fill:#fe8400;}.cls-23{fill:#fd5e01;}.cls-24{fill:#fea800;}.cls-25{fill:#fd5401;}.cls-26{fill:#fd6901;}.cls-27{fill:#fd6d01;}.cls-28{fill:#fea501;}.cls-29{fill:#fd5901;}.cls-30{fill:#fd4000;}.cls-31{fill:#fd4900;}.cls-32{fill:#fd7102;}.cls-33{fill:#fd6201;}.cls-34{fill:#fd3d02;}.cls-35{fill:#fd4602;}.cls-36{fill:#fd3804;}.cls-37{fill:#fd3406;}.cls-38{fill:#fdd104;}.cls-39{fill:#f8f8f8;}.cls-40{fill:#fd7400;}.cls-41{fill:#fd6500;}.cls-42{fill:#020204;}.cls-43{fill:#fdfdfb;}.cls-44,.cls-48{opacity:0.25;}.cls-44,.cls-45,.cls-46,.cls-47,.cls-48,.cls-49,.cls-54,.cls-57,.cls-58,.cls-69,.cls-70,.cls-91,.cls-92{isolation:isolate;}.cls-44{fill:url(#radial-gradient);}.cls-45{opacity:0.42;fill:url(#radial-gradient-2);}.cls-46,.cls-58{opacity:0.2;}.cls-46{fill:url(#radial-gradient-3);}.cls-47{opacity:0.11;}.cls-48,.cls-49,.cls-50,.cls-57{fill:#7c7c7c;}.cls-49{opacity:0.75;}.cls-51{fill:#838384;}.cls-52{clip-path:url(#clip-path);}.cls-53{fill-opacity:0.26;}.cls-54{opacity:0.3;}.cls-55{clip-path:url(#clip-path-3);}.cls-56{clip-path:url(#clip-path-4);}.cls-57{opacity:0.95;}.cls-58{fill:url(#linear-gradient);}.cls-59{fill:url(#linear-gradient-2);}.cls-60{clip-path:url(#clip-path-5);}.cls-61{fill:#cd8907;}.cls-62{fill:#f5c021;}.cls-63{fill:url(#linear-gradient-3);}.cls-64{fill:url(#linear-gradient-4);}.cls-65{clip-path:url(#clip-path-8);}.cls-66{fill:#d99a03;}.cls-67{fill:#f5bd0c;}.cls-68{fill:url(#linear-gradient-5);}.cls-69,.cls-70{opacity:0.35;}.cls-69{fill:url(#radial-gradient-4);}.cls-70{fill:url(#radial-gradient-5);}.cls-71{clip-path:url(#clip-path-10);}.cls-72{fill:url(#radial-gradient-6);}.cls-73{fill:url(#linear-gradient-6);}.cls-74{fill:url(#radial-gradient-7);}.cls-75{fill:url(#linear-gradient-7);}.cls-76{clip-path:url(#clip-path-12);}.cls-77{fill:url(#radial-gradient-8);}.cls-78{fill:url(#linear-gradient-8);}.cls-79{fill:url(#radial-gradient-9);}.cls-80{fill:#141413;}.cls-81{fill:url(#linear-gradient-9);}.cls-82{clip-path:url(#clip-path-13);}.cls-83{fill:url(#linear-gradient-10);}.cls-84{fill:url(#linear-gradient-11);}.cls-85{fill:url(#radial-gradient-10);}.cls-86{fill:url(#radial-gradient-11);}.cls-87{fill:#d9b30d;}.cls-88{fill:#604405;}.cls-89{fill:url(#linear-gradient-12);}.cls-90{fill:#f6da4a;}.cls-91,.cls-92{opacity:0.8;}.cls-91{fill:url(#radial-gradient-12);}.cls-92{fill:url(#radial-gradient-13);}.cls-93{clip-path:url(#clip-path-14);}.cls-94{fill:url(#linear-gradient-13);}</style><radialGradient id="radial-gradient" cx="-937.48" cy="18.27" r="24.1" gradientTransform="translate(-415.8 137.67) rotate(180) scale(0.81 0.76)" gradientUnits="userSpaceOnUse"><stop offset="0"/><stop offset="1" stop-opacity="0.25"/></radialGradient><radialGradient id="radial-gradient-2" cx="547.92" cy="4.34" r="24.1" gradientTransform="matrix(1, 0, 0, -0.76, -142, 137.67)" xlink:href="#radial-gradient"/><radialGradient id="radial-gradient-3" cx="515.73" cy="93.68" r="9.54" gradientTransform="matrix(1, 0, 0, -1.07, -142, 230.3)" xlink:href="#radial-gradient"/><clipPath id="clip-path"><path id="SVGID" class="cls-1" d="M362.42,75.55a10.43,10.43,0,0,0-1.88,4,20.84,20.84,0,0,0-.55,4.38c-.11,3,.07,6-.72,8.8-.83,3.05-2.7,5.68-4.53,8.25-3.17,4.46-6.38,9-7.94,14.26a25.28,25.28,0,0,0-.93,9.82,104.14,104.14,0,0,0-9.17,16.53,90.5,90.5,0,0,0-7.44,27.57,70.31,70.31,0,0,0,5,34.4A56.26,56.26,0,0,0,348.9,224a50.22,50.22,0,0,0,10.72,7.12c13.38,6.58,29.92,6.59,43.09-.42,6.87-3.67,12.68-9,18.28-14.45a64.13,64.13,0,0,0,9.3-10.53C435.24,198.15,437,189,438,180c1.88-15.69,1.94-32.27-4.94-46.49a51.42,51.42,0,0,0-9.31-13.32,73,73,0,0,0-5.89-19.83c-2.09-4.54-4.63-8.86-6.57-13.46-.8-1.89-1.49-3.82-2.37-5.67a17.22,17.22,0,0,0-3.45-5A14.17,14.17,0,0,0,400.1,73,23.64,23.64,0,0,0,393.91,72c-4.19-.21-8.39.34-12.59.18-3.33-.14-6.66-.72-10-.53a15.36,15.36,0,0,0-4.88,1,9.89,9.89,0,0,0-4,2.9"/></clipPath><clipPath id="clip-path-3"><path id="SVGID-3" data-name="SVGID" class="cls-1" d="M443.71,129.78a28.14,28.14,0,0,1,9.8,17.6,42.68,42.68,0,0,1-.9,16,130.89,130.89,0,0,1-4.87,15.31,30.33,30.33,0,0,0-1.75,6.15,10.21,10.21,0,0,0,.91,6.24,9.51,9.51,0,0,0,5.71,4.33,13.69,13.69,0,0,0,7.16.09,17.46,17.46,0,0,0,6.45-3.21c4.85-3.77,7.78-9.63,8.92-15.67s.61-12.28-.45-18.33a122.79,122.79,0,0,0-6.93-24.11,84.09,84.09,0,0,0-8.61-16.3c-3.39-5-8.19-8.87-11.74-13.75-1.23-1.69-2.71-3.46-3.93-5.17-2.61-3.7-2-3-3.64-5.4-1.17-1.73-3-2.33-5-3.09A9.86,9.86,0,0,0,428.7,90a9.73,9.73,0,0,0-6,5.35,14.06,14.06,0,0,0-.91,8.11,29,29,0,0,0,4,9.85,35.55,35.55,0,0,0,7.51,9.37c3.23,2.69,7.13,4.46,10.4,7.09"/></clipPath><clipPath id="clip-path-4"><path id="SVGID-4" data-name="SVGID" class="cls-1" d="M342.86,103c-6.22,7.07-12.62,13.92-16.14,21.56-1.74,3.89-2.56,8.1-3.75,12.19a92.1,92.1,0,0,1-5.25,13.49c-1.91,4-4,8-6.11,11.91-1.53,2.86-3.08,5.79-3.61,9a18.4,18.4,0,0,0,.47,7.63,35,35,0,0,0,2.85,7.13,70,70,0,0,0,21.32,24.56A75.45,75.45,0,0,0,345.49,218a19.94,19.94,0,0,0,7.72,2.16,9.52,9.52,0,0,0,3.94-.74,7,7,0,0,0,3.06-2.54,7.32,7.32,0,0,0,1-4.76,11.46,11.46,0,0,0-1.68-4.63c-2.1-3.45-5.42-5.94-8.62-8.42q-10.35-8-19.95-16.93a25.81,25.81,0,0,1-4.87-5.52,20.79,20.79,0,0,1-2.34-6.77,37.58,37.58,0,0,1,1.29-19.48c.86-2.42,2-4.74,3.09-7.07a86.63,86.63,0,0,1,6.2-11.85c3.12-4.6,7.28-8.5,9.81-13.44,2.15-4.17,3-8.86,3.84-13.48.65-3.61,1.89-7.14,2.53-10.76-1.24,2.35-5.23,6.2-7.67,9.26Z"/></clipPath><linearGradient id="linear-gradient" x1="571.28" y1="-4.57" x2="574.53" y2="-28.84" gradientTransform="matrix(1.03, 0, 0, -1, -141.01, 209.47)" gradientUnits="userSpaceOnUse"><stop offset="0"/><stop offset="1" stop-opacity="0"/></linearGradient><linearGradient id="linear-gradient-2" x1="671.66" y1="-47.27" x2="713.96" y2="21.32" gradientTransform="matrix(1, 0, 0, -1, -242, 209.47)" gradientUnits="userSpaceOnUse"><stop offset="0" stop-color="#3e2a06"/><stop offset="1" stop-color="#ad780a"/></linearGradient><clipPath id="clip-path-5"><path id="SVGID-5" data-name="SVGID" class="cls-1" d="M494.82,227.58c-2.31,2.74-5.52,4.55-8.71,6.18-5.44,2.77-11.09,5.21-16.2,8.55a66,66,0,0,0-9.56,7.69,76.16,76.16,0,0,1-7.77,7.05,22.23,22.23,0,0,1-9.67,4.09,23.12,23.12,0,0,1-12.58-1.9,15,15,0,0,1-7-5.48c-1.6-2.57-2-5.71-2-8.73,0-5.35,1-10.64,1.92-15.9.77-4.38,1.51-8.76,2-13.18a136.78,136.78,0,0,0,.28-24.2,18.28,18.28,0,0,1,0-4.05,5.75,5.75,0,0,1,1.78-3.56,5.82,5.82,0,0,1,3.46-1.24,18.67,18.67,0,0,1,3.73.31,76.77,76.77,0,0,1,8.7,1.51c1.8.47,3.55,1.11,5.35,1.59a24.52,24.52,0,0,0,9.21.84c3.31-.39,6.53-1.64,9.87-1.55a14.64,14.64,0,0,1,4,.7,8.59,8.59,0,0,1,3.62,2A7.92,7.92,0,0,1,477,191a16.2,16.2,0,0,1,1,4.62,38.85,38.85,0,0,0,.37,4.18,13.68,13.68,0,0,0,3.1,6.11,39.49,39.49,0,0,0,5,4.75c1.76,1.48,3.53,2.95,5.43,4.25.89.61,1.81,1.18,2.65,1.85a8.35,8.35,0,0,1,2.16,2.39,5.46,5.46,0,0,1,.47,4.29,12.25,12.25,0,0,1-2.35,4.12Z"/></clipPath><linearGradient id="linear-gradient-3" x1="593.79" y1="22.12" x2="592.55" y2="10.93" gradientTransform="matrix(1, 0, 0, -1, -142, 207.47)" gradientUnits="userSpaceOnUse"><stop offset="0" stop-color="#f3cd0c"/><stop offset="1" stop-color="#f3cd0c" stop-opacity="0"/></linearGradient><linearGradient id="linear-gradient-4" x1="369.08" y1="10.28" x2="411.07" y2="-60.18" gradientTransform="matrix(1, 0, 0, -1, -72, 209.47)" gradientUnits="userSpaceOnUse"><stop offset="0" stop-color="#b98309"/><stop offset="1" stop-color="#382605"/></linearGradient><clipPath id="clip-path-8"><path id="SVGID-8" data-name="SVGID" class="cls-1" d="M313.92,178.67a8,8,0,0,1,4.49-.41,10.88,10.88,0,0,1,4.17,1.78,26.39,26.39,0,0,1,6.18,6.67c4.11,5.66,8.07,11.43,11.65,17.44,2.91,4.87,5.58,9.9,8.95,14.48,2.19,3,4.66,5.75,6.87,8.73a30.09,30.09,0,0,1,5.14,9.78,19.6,19.6,0,0,1-1.43,14,18.59,18.59,0,0,1-6.84,7.34,17.59,17.59,0,0,1-9.69,2.52c-5.38-.2-10.3-2.89-15.3-4.88-10.19-4.06-21.25-5.33-31.76-8.49-3.22-1-6.4-2.12-9.65-3a28.7,28.7,0,0,1-4.27-1.37,7.38,7.38,0,0,1-3.4-2.83,6.43,6.43,0,0,1-.82-3.33,10.65,10.65,0,0,1,.68-3.39c.79-2.18,2.06-4.15,2.92-6.3a26.32,26.32,0,0,0,1.47-11.15c-.19-3.78-.8-7.52-1.06-11.29a19.4,19.4,0,0,1,.16-5.05,7.58,7.58,0,0,1,6.38-6.48,20.71,20.71,0,0,1,4.65-.3,42.79,42.79,0,0,0,4.67,0,10.65,10.65,0,0,0,4.46-1.25,10.47,10.47,0,0,0,3.2-3,34.76,34.76,0,0,0,2.3-3.79,24.65,24.65,0,0,1,2.41-3.72,9.24,9.24,0,0,1,3.47-2.7"/></clipPath><linearGradient id="linear-gradient-5" x1="416.15" y1="-7.09" x2="429.37" y2="-31.97" gradientTransform="matrix(1, 0, 0, -1, -72.53, 207.7)" gradientUnits="userSpaceOnUse"><stop offset="0" stop-color="#ebc40c"/><stop offset="1" stop-color="#ebc40c" stop-opacity="0"/></linearGradient><radialGradient id="radial-gradient-4" cx="441.36" cy="196.22" r="14.82" gradientTransform="matrix(1.31, 0.35, 0.37, -1.37, -198.78, 313.34)" gradientUnits="userSpaceOnUse"><stop offset="0" stop-color="#110800"/><stop offset="0.59" stop-color="#a65a00" stop-opacity="0.8"/><stop offset="1" stop-color="#ff921e" stop-opacity="0"/></radialGradient><radialGradient id="radial-gradient-5" cx="456.26" cy="143.25" r="14.82" gradientTransform="matrix(1.31, 0.25, 0.37, -0.99, -198.78, 220.45)" xlink:href="#radial-gradient-4"/><clipPath id="clip-path-10"><path id="SVGID-10" data-name="SVGID" class="cls-1" d="M471.06,182.46a6.31,6.31,0,0,0-1.75-2.52,9.14,9.14,0,0,0-2.62-1.63,28.72,28.72,0,0,0-6-1.49c-1.92-.36-3.82-.8-5.75-1.13a15.75,15.75,0,0,0-6-.11,10.38,10.38,0,0,0-4.64,2.48,13.36,13.36,0,0,0-3.06,4.3,18.64,18.64,0,0,0-1.46,9.16A11,11,0,0,0,442,198a10,10,0,0,0,4.78,2.84,16.12,16.12,0,0,0,9.55-.14A25.15,25.15,0,0,0,469,191.19a14,14,0,0,0,2.25-4.76,7.14,7.14,0,0,0-.16-4"/></clipPath><radialGradient id="radial-gradient-6" cx="1697.58" cy="692.71" r="18.07" gradientTransform="matrix(0.36, 0.16, 0.07, -0.17, -195.76, 29.53)" gradientUnits="userSpaceOnUse"><stop offset="0" stop-color="#7c7c7c"/><stop offset="1" stop-color="#7c7c7c" stop-opacity="0.33"/></radialGradient><linearGradient id="linear-gradient-6" x1="588.91" y1="27.27" x2="591.55" y2="27.38" gradientTransform="matrix(1, 0, 0, -1, -142, 209.47)" xlink:href="#radial-gradient-6"/><radialGradient id="radial-gradient-7" cx="610" cy="178.3" r="12.82" gradientTransform="matrix(0.82, -0.03, -0.03, -1.25, -126.17, 295.93)" gradientUnits="userSpaceOnUse"><stop offset="0" stop-color="#fefefc"/><stop offset="0.76" stop-color="#fefefc"/><stop offset="1" stop-color="#d4d4d4"/></radialGradient><linearGradient id="linear-gradient-7" x1="405.74" y1="161.92" x2="410.88" y2="152.75" gradientTransform="matrix(1, 0, 0, -1, -42, 209.47)" gradientUnits="userSpaceOnUse"><stop offset="0" stop-color="#757574" stop-opacity="0"/><stop offset="0.26" stop-color="#757574"/><stop offset="0.5" stop-color="#757574"/><stop offset="1" stop-color="#757574" stop-opacity="0"/></linearGradient><clipPath id="clip-path-12"><path id="SVGID-12" data-name="SVGID" class="cls-1" d="M363.77,39.08A6.87,6.87,0,0,0,359.55,41a9.69,9.69,0,0,0-2.45,4c-1,3-.77,6.2-.54,9.33A27.41,27.41,0,0,0,358,62.62a11,11,0,0,0,2.27,3.58,7.91,7.91,0,0,0,3.63,2.14,7.43,7.43,0,0,0,3.94-.14,8.55,8.55,0,0,0,3.38-2.06,11.4,11.4,0,0,0,2.87-5,20,20,0,0,0,.66-5.77,24.24,24.24,0,0,0-1.11-7.18A16.32,16.32,0,0,0,370,41.94a10.57,10.57,0,0,0-2.81-2.11,7,7,0,0,0-3.41-.75"/></clipPath><radialGradient id="radial-gradient-8" cx="2918.67" cy="-1353.29" r="31.24" gradientTransform="matrix(0.2, -0.03, -0.03, -0.19, -265.12, -110.48)" gradientUnits="userSpaceOnUse"><stop offset="0" stop-color="#c8c8c8"/><stop offset="1" stop-color="#797978"/></radialGradient><linearGradient id="linear-gradient-8" x1="495.92" y1="177.35" x2="507.71" y2="166" gradientTransform="matrix(1, 0, 0, -1, -132, 209.47)" gradientUnits="userSpaceOnUse"><stop offset="0" stop-color="#646464" stop-opacity="0"/><stop offset="0.31" stop-color="#646464" stop-opacity="0.58"/><stop offset="0.47" stop-color="#646464"/><stop offset="0.73" stop-color="#646464" stop-opacity="0.26"/><stop offset="1" stop-color="#646464" stop-opacity="0"/></linearGradient><radialGradient id="radial-gradient-9" cx="400.08" cy="184.07" r="12.82" gradientTransform="matrix(1.09, -0.03, -0.04, -1.25, -29.06, 295.93)" xlink:href="#radial-gradient-7"/><linearGradient id="linear-gradient-9" x1="449.89" y1="161.23" x2="455.8" y2="154.23" gradientTransform="matrix(1, 0, 0, -1, -52, 209.47)" gradientUnits="userSpaceOnUse"><stop offset="0" stop-color="#949494" stop-opacity="0.39"/><stop offset="0.5" stop-color="#949494"/><stop offset="1" stop-color="#949494" stop-opacity="0.39"/></linearGradient><clipPath id="clip-path-13"><path id="SVGID-13" data-name="SVGID" class="cls-1" d="M391.5,39.08A14.41,14.41,0,0,0,386,45.9c-1.27,3.52-.78,7.46.44,11a18.21,18.21,0,0,0,6.49,9.25,11.92,11.92,0,0,0,5.3,2.06,9.76,9.76,0,0,0,5.58-1,10.76,10.76,0,0,0,4.63-5.09A18.61,18.61,0,0,0,410,55.36a22.8,22.8,0,0,0-1.1-8.8,14.75,14.75,0,0,0-5.69-7.62,11.12,11.12,0,0,0-4.5-1.7,9.46,9.46,0,0,0-4.77.53,11.72,11.72,0,0,0-2.41,1.31"/></clipPath><linearGradient id="linear-gradient-10" x1="575.89" y1="174.31" x2="594.7" y2="163.32" gradientTransform="matrix(1, 0, 0, -1, -182, 209.47)" gradientUnits="userSpaceOnUse"><stop offset="0" stop-color="#747474"/><stop offset="0.13" stop-color="#8c8c8c"/><stop offset="0.25" stop-color="#a4a4a4"/><stop offset="0.5" stop-color="#d4d4d4"/><stop offset="0.62" stop-color="#d4d4d4"/><stop offset="1" stop-color="#7c7c7c"/></linearGradient><linearGradient id="linear-gradient-11" x1="531.81" y1="177.88" x2="544.33" y2="166.06" xlink:href="#linear-gradient-8"/><radialGradient id="radial-gradient-10" cx="323.51" cy="-367.21" r="13.53" gradientTransform="matrix(0.7, -0.51, -0.46, -0.63, -17.58, -7.13)" gradientUnits="userSpaceOnUse"><stop offset="0" stop-color="#020204"/><stop offset="0.73" stop-color="#020204"/><stop offset="1" stop-color="#5c5c5c"/></radialGradient><radialGradient id="radial-gradient-11" cx="391.64" cy="-321.27" r="27.37" gradientTransform="matrix(0.94, -0.39, -0.27, -0.66, -64.2, 12.22)" gradientUnits="userSpaceOnUse"><stop offset="0" stop-color="#d2940a"/><stop offset="0.75" stop-color="#d89c08"/><stop offset="0.87" stop-color="#b67e07"/><stop offset="1" stop-color="#946106"/></radialGradient><linearGradient id="linear-gradient-12" x1="499.27" y1="139.03" x2="548.97" y2="139.42" gradientTransform="matrix(1, 0, 0, -1, -142, 209.47)" gradientUnits="userSpaceOnUse"><stop offset="0" stop-color="#ad780a"/><stop offset="0.12" stop-color="#d89e08"/><stop offset="0.26" stop-color="#edb80b"/><stop offset="0.39" stop-color="#ebc80d"/><stop offset="0.53" stop-color="#f5d838"/><stop offset="0.77" stop-color="#f6d811"/><stop offset="1" stop-color="#f5cd31"/></linearGradient><radialGradient id="radial-gradient-12" cx="316.39" cy="-8.43" r="2.84" gradientTransform="matrix(1, 0, 0, -0.58, 68, 56.04)" gradientUnits="userSpaceOnUse"><stop offset="0" stop-color="#3a2903"/><stop offset="0.55" stop-color="#735208"/><stop offset="1" stop-color="#ac8c04"/></radialGradient><radialGradient id="radial-gradient-13" cx="303.59" cy="163.68" r="1.35" gradientTransform="matrix(1, 0, 0, -1.08, 68, 237.1)" xlink:href="#radial-gradient-12"/><clipPath id="clip-path-14"><path id="SVGID-14" data-name="SVGID" class="cls-1" d="M380.91,56.91a20.74,20.74,0,0,0-7.14,1.18,24.51,24.51,0,0,0-10.53,7.2,21.07,21.07,0,0,0-4.51,4.13,9.84,9.84,0,0,0-1.79,3,22.32,22.32,0,0,0-.57,2.7,4.33,4.33,0,0,0-.15,1,1.79,1.79,0,0,0,.07.51l.06.14a2.64,2.64,0,0,0,.24.57,3.41,3.41,0,0,0,1,1c.37.27.76.49,1.15.74a20.71,20.71,0,0,1,5.21,5c2,2.57,3.76,5.42,6.43,7.29a13.53,13.53,0,0,0,6.41,2.3,21,21,0,0,0,8-.92,28.49,28.49,0,0,0,6.85-3c4.05-2.5,7.42-6.16,11.89-7.8,1-.36,2-.61,2.92-1a4.57,4.57,0,0,0,2.27-2,9.89,9.89,0,0,0,.56-2.93c.15-1,.49-2.07.67-3.13a5.18,5.18,0,0,0-.25-3.14,3.67,3.67,0,0,0-.36-.6A2.31,2.31,0,0,0,409,68a3.88,3.88,0,0,0-1.85-1.49,18.3,18.3,0,0,0-3.17-.93,45.6,45.6,0,0,1-9.54-3.48c-1.51-.75-3-1.58-4.46-2.38a26,26,0,0,0-4.74-2.1,15.54,15.54,0,0,0-4.28-.67Z"/></clipPath><linearGradient id="linear-gradient-13" x1="442.75" y1="214.48" x2="443.14" y2="212.06" gradientTransform="matrix(1.1, 0, 0.17, -1.52, -114.59, 394.5)" gradientUnits="userSpaceOnUse"><stop offset="0" stop-color="#f5ce2d"/><stop offset="1" stop-color="#d79b08"/></linearGradient></defs><path d="M105.6,107.74c0-5.16-.14-10.32.06-15.47.12-2.89-.44-4.38-3.76-4.06-1.47.14-3.84,1.2-4.12-2-.24-2.61,1.58-3,3.33-3.46,4.8-1.32,9.31-3.63,14.31-4.22,2.49-.29,4.81-.3,4.2,3.4-.45,2.75.49,3.19,2.93,1.82a48.29,48.29,0,0,1,11-4.63c11.85-3.22,19.94,2,20.79,14.34.69,9.93.37,20,.31,29.93,0,3.72.11,6.83,5.12,6.31,2.07-.21,2.36,1.07,2.43,2.82.08,2.2-1.11,2.37-2.8,2.36-7.32,0-14.65,0-22,0-1.41,0-3.12.45-3.16-2,0-1.89.19-3.3,2.58-3.24,3.39.08,4.07-2,4-4.92-.09-8.32,0-16.64-.07-25-.06-4.23-.57-8.59-5-10.67-5-2.37-10.13-.77-15.11.62-1.5.42-1.13,1.84-1.13,3,0,10.82,0,21.63,0,32.44,0,2.78.82,4.61,3.89,4.52,2.24-.07,2.75,1,2.77,3.07,0,2.37-1.45,2.17-3,2.17-7.49,0-15,0-22.48,0-1.8,0-2.73-.4-2.69-2.48,0-1.89.63-2.85,2.57-2.72,4.47.31,5.16-2.28,5-6C105.45,118.4,105.6,113.07,105.6,107.74Z"/><path d="M208.65,128.63c-4.91,2.81-8.74,5.12-13.09,6.38-12.44,3.6-21-2.16-21.58-15.08-.43-9.3-.29-18.63-.11-27.95.07-3.27-.8-4.55-4.16-4.16-1.21.15-3.15.9-3.46-1.56-.25-2.09.84-3,2.66-3.52,4.76-1.45,9.45-3.19,14.26-4.45,3-.78,4.81,0,4.69,4-.3,10.31-.16,20.63-.08,31,.09,11.71,8,16.59,18.85,11.85,1.89-.83,1.86-2,1.86-3.52,0-10.16-.14-20.31.07-30.46.06-3.35-1.64-3.27-4-3.26-1.23,0-3.16,1-3.49-1.49-.28-2,.69-3,2.54-3.56,4.44-1.39,8.79-3.1,13.27-4.34,3.49-1,5.75-.55,5.62,4.36-.36,13.64-.05,27.29-.18,40.94,0,3.71.57,6.34,5.05,6,2.32-.18,2.67,1.12,2.68,3.1,0,2.42-1.59,2.08-3,2.08-4.16,0-8.34-.25-12.48.08S207.2,134.87,208.65,128.63Z"/><path d="M29.59,134.9c-8.33,0-16.65,0-25,0-1.66,0-3.61.73-3.77-2.38s1.46-3.26,3.61-3.24c4.36,0,5.53-2.28,5.49-6.38q-.26-26.2,0-52.42c0-4.12-1-6.42-5.48-6.18C2.24,64.4.77,63.87.84,61,.93,57.81,3,58.61,4.59,58.6c8.33-.05,16.65-.07,25,0,1.7,0,4.11-1.1,4.22,2.44.09,3-1.68,3.3-3.76,3.22-4.22-.17-5.25,1.89-5.21,5.85q.27,27,0,53.92c0,3.28.51,4.79,4.25,4.53a143.75,143.75,0,0,1,15,0c3,.1,4.31-1.18,4.63-3.94.28-2.48.56-5,.91-7.44.55-4,3.86-5.91,7.55-4.42,1.78.72,1.17,2.19,1.18,3.38.07,5.16-.11,10.33.09,15.48.1,2.63-.7,3.4-3.35,3.35C46.57,134.79,38.08,134.9,29.59,134.9Z"/><path d="M265.47,99.94l9.67-13.88c-1.31-1.39-2.75-1.13-4-1.44-1.89-.47-1.36-2-1.41-3.23-.08-1.58.89-1.88,2.23-1.88,5.49,0,11,0,16.47,0,1.35,0,2.31.38,2.17,2-.11,1.23.53,3.21-1.41,3.16-6.29-.17-8.07,5.16-11.06,8.86s-7.82,7-7.64,11.16c.16,3.81,4.48,7.46,7,11.16,2.25,3.29,4.62,6.51,6.79,9.86,1.43,2.19,2.93,4,5.84,3.95,2.22,0,2.71,1.28,2.66,3.26-.06,2.43-1.73,2-3.15,2-6.82,0-13.64,0-20.47,0-1.18,0-2.81.58-3-1.52-.19-1.7.23-2.87,2.13-3.26,2.29-.47,2.48-1.68,1.21-3.55-3-4.36-5.81-8.8-8.95-13.58l-10.41,15.18c.2.34.28.74.52.86,1.88,1,5.62-.25,4.87,3.95-.7,3.87-3.74,1.7-5.62,1.84-4.3.33-8.64.15-13,.09-1.51,0-3.46.65-3.47-2.17,0-2.11.76-3.12,2.83-3.14,3.18,0,5-1.94,6.82-4.33,3.47-4.67,7-9.29,10.78-13.73,1.89-2.22,2.29-3.8.34-6.33-4-5.12-7.58-10.52-11.18-15.91-1.65-2.48-3.43-4.46-6.66-4.37-2.37.07-2.5-1.36-2.55-3.24,0-2.4,1.46-2.14,3-2.14,7.15,0,14.31,0,21.46,0,1.2,0,2.82-.57,2.94,1.6.1,1.8,0,3.26-2.38,3.45-3.1.25-2.42,1.86-1.16,3.68C260.16,92,262.62,95.69,265.47,99.94Z"/><path class="cls-2" d="M84.91,103.54c0,7,.14,14-.06,21-.09,3.57,1.09,5.37,4.81,5.18,2-.1,3.49.1,3.44,2.89s-1.7,2.31-3.32,2.32c-7.83,0-15.65,0-23.48,0-1.76,0-3.23.1-3.21-2.48,0-2.38,1.22-2.85,3.11-2.73,3.74.22,4.87-1.65,4.82-5.19-.14-10.81-.18-21.63,0-32.45.06-3.17-.9-4.13-3.94-3.83-1.39.13-3.48.93-3.8-1.82-.25-2.21,1-2.94,2.77-3.41,5.27-1.41,10.13-4.22,15.75-4.49,2.36-.11,3.19.59,3.14,3.06C84.81,88.89,84.91,96.22,84.91,103.54Z"/><path class="cls-3" d="M15.22,214.92c-4.62,4.84-6.79,4.62-9.92-1.12A33.76,33.76,0,0,1,1,196.92a93.66,93.66,0,0,1,.08-19.45c1.38-8,8-8.45,14-9.83.26,13.85,1.69,27.66,1.5,41.53A18,18,0,0,1,15.22,214.92Z"/><path class="cls-4" d="M35.07,163.53a41.71,41.71,0,0,1,11-1.83c.76,10.49,2,21,1.3,31.5a19.58,19.58,0,0,0,.74,5.35c-2.7,1.77-6,1.95-8.88,3s-2.85-1.32-3.13-2.95a54.55,54.55,0,0,1-.48-10.91C35.85,179.66,35.25,171.6,35.07,163.53Z"/><path class="cls-5" d="M15.22,214.92c0-5,0-10-.16-14.94-.37-9.69-.75-19.38-1.47-29-.13-1.75.79-2.29,1.48-3.29a7.94,7.94,0,0,1,5-1.11c2,.91,2.4,2.74,2.38,4.59a152.11,152.11,0,0,0,2,27.78,16.29,16.29,0,0,1-1.08,9.8Z"/><path class="cls-6" d="M23.38,208.7c.15-12-3.39-23.79-2.32-35.87.19-2.14.23-4.34-1-6.3a20.74,20.74,0,0,1,8-1.87c2.51,1.34,2.43,3.77,2.49,6.08.26,9.45-.45,18.92.92,28.34a7.21,7.21,0,0,1-2.34,6.76Z"/><path class="cls-7" d="M29.17,205.84a11,11,0,0,0,.89-5.8c-1.64-10.5-.72-21.07-1-31.6a17.28,17.28,0,0,0-.94-3.78,15.68,15.68,0,0,1,7-1.13c2.39,4.26,2,8.93,2,13.55.11,7.42-.38,14.84.43,22.26.16,1.46.28,2.1,1.68,2.26Z"/><path class="cls-8" d="M63.37,193.74l-9.27,2.83c-3.12-.62-2.31-3.22-2.42-5.15-.26-4.48.19-9-.22-13.47-.53-5.68-.54-11.54-4.38-16.36a59.77,59.77,0,0,1,14-1.87C60.65,171.14,64.59,182.26,63.37,193.74Z"/><path class="cls-9" d="M110.05,154.62a41.37,41.37,0,0,1,11-1c2.52,7.63.57,15.28.12,22.92-.16,2.69-2.55,3.17-4.1,4.5l-3.68.58c-3.6,1.15-5.39.1-5.09-3.94.42-5.65.11-11.31.21-17C108.53,158.59,108.44,156.38,110.05,154.62Z"/><path class="cls-10" d="M149.05,151.62c4.59-1.18,9.29-1.14,14-1.06.69.51,1.53.88,1.86,1.77,1.06,6.13.7,12.29.26,18.44a2.46,2.46,0,0,0,.12,2.91,77.3,77.3,0,0,1-15.89,2,2.94,2.94,0,0,1-2.27.17c-.36-.68-.28-1.48.37-1.7,5.49-1.88,5.55-6.28,5.23-10.92a7.33,7.33,0,0,1,.11-3C154.38,156.1,150.71,154.32,149.05,151.62Z"/><path class="cls-11" d="M63.37,193.74c-.33-.36-.95-.73-.95-1.09.21-10.58-3.09-20.86-2.65-31.45,0-.51.83-1,1.27-1.48l3-.24c4.09.64,6,3.08,5.41,7.13-1.23,8.46,2.79,16.54,1.69,25A23.15,23.15,0,0,1,63.37,193.74Z"/><path class="cls-12" d="M110.05,154.62c-.24,8.26.5,16.54-.4,24.79-.37,3.31,2.37,1.68,3.72,2.25-3.26,1.14-6.53,2.18-10.06,2-2.86,1.06-4.16,0-3.94-3,.36-4.81-.23-9.68.44-14.44a25,25,0,0,0-.76-10.7l1.7,0c2-.91,4.24.11,6.26-.72Z"/><path class="cls-13" d="M47.08,161.59c4.2,1.5,4.82,4.57,5.2,8.78.71,7.86.73,15.7.8,23.56a3,3,0,0,0,1,2.64,13,13,0,0,1-6,2c-1.63-.19-2.92-.7-2.61-2.75,1.54-10.33.42-20.61-.88-30.85-.23-1.77.71-2.29,1.45-3.25Z"/><path class="cls-14" d="M95.23,185.63a26.81,26.81,0,0,1-9,2c-2.51,0-1.66-2-1.68-3.19,0-3.95,0-7.9,0-11.85,0-5,.74-10.22-3-14.62,2.6-1.75,5.29-.13,7.44-1.4l2.79-.2c2.63.68,2.89,2.75,3.11,5A179.78,179.78,0,0,1,95.23,185.63Z"/><path class="cls-15" d="M117.05,181.08c4.66-7.38,4.53-15.48,3.28-23.63-.24-1.55-.78-2.73.7-3.79,4.31-.64,8.61-1.37,13-1-.85,3.12-3.36,1.7-5.38,2.26,1.36.92,1.65,2.52,1.71,4.17.16,4.8,0,9.61.06,14.41,0,2.1-1.21,3.56-2,5.25Z"/><path class="cls-16" d="M86.73,60.64a8.58,8.58,0,0,1-8.39,8.72A8.43,8.43,0,0,1,70,61.12a8.35,8.35,0,1,1,16.69-.48Z"/><path class="cls-17" d="M149.05,151.62c5.1.94,6.57,3.91,5,8.74a7.91,7.91,0,0,0,0,3.46c1,5.92-.44,10.3-7,11.63-2.93,1.52-4.05-.26-4.28-2.67a116.16,116.16,0,0,1-.09-17.3c.18-3.6,3.08-3.21,5.34-3.8Z"/><path class="cls-18" d="M71.14,191.58c-.43-.19-1.25-.42-1.24-.57.73-8.18-3.37-16-1.82-24.24.69-3.62-.82-5.9-4-7.29,4.68-.51,9.21-2.15,14-1.82a11.17,11.17,0,0,0-1.73,7.69c.63,6.71-.32,13.51.78,20.22.53,3.25-2.33,3.85-3.92,5.46A1.93,1.93,0,0,1,71.14,191.58Z"/><path class="cls-19" d="M242.35,163.75a47.92,47.92,0,0,1-12.87,1.94,5.89,5.89,0,0,1-4.83-.35c3.76-2.16,4.45-5.29,4-9.21-.39-3.58-1-6.83-3.65-9.41a233.59,233.59,0,0,1,31-.94,1,1,0,0,1-.37,1.35,5.41,5.41,0,0,1-2.18.69c-4.12-.08-8.3.72-12.37-.61-.63-.21.18,0-.48-.12.13.33.57.27.75.61a121,121,0,0,1-.14,13.74C241.09,162.81,242,163,242.35,163.75Z"/><path class="cls-20" d="M95.23,185.63c-1.76-.13-1.3-1.22-1.29-2.44,0-7.81,0-15.62-.27-23.43,0-1.14-1.19-2.24-1.83-3.35l.09.07c1.6-.87,3.49.12,5.09-.76l2-.18c2.64,1.12,3.68,3.25,2.93,5.86-1.91,6.6,0,13.42-1.37,20-.55,2.64,1.45,1.92,2.7,2.23A26.22,26.22,0,0,1,95.23,185.63Z"/><path class="cls-21" d="M128.39,178.73c-.53-.2-1.67-.23-1.23-.95,2.75-4.49,2.74-19.89-.17-23.79,2.2-1.23,5,.68,7-1.35l2-.13c1.77,1,2.31,2.66,2.38,4.55.17,4.91,0,9.82.06,14.73,0,3.08-1.79,4.63-4.12,6C132.48,178.77,130.44,178.76,128.39,178.73Z"/><path class="cls-22" d="M134.35,177.75c2.86-2.82,3-6.37,2.69-10-.45-5.06,1-10.25-1-15.2a48.22,48.22,0,0,1,12-.83c-3,.94-4.4,2.54-4.09,6a139.43,139.43,0,0,1,.09,14.46c0,2.15.4,3.67,3,3.27l2.32.22A98.68,98.68,0,0,1,134.35,177.75Z"/><path class="cls-23" d="M205,147.68l5.82-.25c1.1.19,2.2.36,2.83,1.45a34.09,34.09,0,0,1,.06,16.25c-.55,2.2,1.06,1.67,1.45,2.5-3.17,1.11-6.46,1.12-9.76,1.06-2,.81-2.86-.14-2.86-2,0-5.47,0-10.94,0-16.41C202.5,148.54,203.79,148.17,205,147.68Z"/><path class="cls-24" d="M73.17,191c2.53-2.28,2.76-4.74,2.17-8.21-.85-5-.25-10.17-.28-15.27,0-1.48.5-3.27-.15-4.38-2.32-4,.28-4.72,3.13-5.51l1-.06c3.08.76,3.44,3.19,3.49,5.76.12,5.93-.1,11.86.09,17.79.14,4.3-.76,7.67-5.49,8.81C76,191.1,74.52,190.75,73.17,191Z"/><path class="cls-25" d="M213,148.59a2.35,2.35,0,0,1-2.19-1.15l.07.06c4.31-1.07,8.76.25,13.08-.73l1.06-.05c3.37.84,5.77,1.86,4.58,6.46-.48,1.84,0,4.59.48,6.81.78,3.48.27,5.49-4,4.57.13,1.25.89.93,1.36,1,.66.1,1.33.09,2,.13-2.28,1.1-4.72,1-7.15,1-1.44.45-2.88.77-4.36-.27,2.9-4.42,1.39-9.29,1.43-14a2.37,2.37,0,0,0-2.24-2.31C215.7,149.83,214.16,149.74,213,148.59Z"/><path class="cls-26" d="M190,148.64l2-.08a3.06,3.06,0,0,1,.72,1.35c.81,4.21.59,8.48.65,12.74,0,1.94-.3,4,1.57,5.42a4.34,4.34,0,0,1,2.4,1.66c-2.21,1.1-4.58,1-6.94,1-1.71.83-3.67-.13-5.37.78l-2.65.22a4.89,4.89,0,0,1-3.29.16c-.05-.16-.18-.44-.14-.46,5.31-3.43,3.63-8.74,3.64-13.58C182.62,149.75,182.59,149.75,190,148.64Z"/><path class="cls-27" d="M190,148.64c-6.75,0-6.46,4.5-6,9.21.17,1.8-.44,3.79.12,5.42,1.71,5-.14,7.49-5.09,8.22-1.79,1-3.46.88-3.39-1.5.13-4.62-1.13-9.12-.91-13.71.13-2.67.74-5.23,3.31-6.76C182,148.5,186,148.56,190,148.64Z"/><path class="cls-28" d="M77.16,190c3.68-1.94,4.15-5.13,4-8.93-.27-6.07-.15-12.16,0-18.24,0-2.11-.33-3.86-2-5.19a34.92,34.92,0,0,1,10-1c-1.69,1.94-4.16.29-6.53,1.55,3.69,1.69,3.61,4.78,3.58,8,0,7.16.1,14.33.17,21.5A27.64,27.64,0,0,1,77.16,190Z"/><path class="cls-29" d="M213,148.59h1c7,0,7,0,7,6.83,0,2.48-.39,5.05.15,7.41s-.93,2.62-2.77,3.55l3.94.29a15.94,15.94,0,0,1-7.17,1h-3.41C214.28,161.31,212.46,154.84,213,148.59Z"/><path class="cls-30" d="M254,146.61l2,0c1.19-.83,2.51-.38,3.79-.39,6.31,1,6.34,1.12,6.61,7.73.09,2-.67,3.85-.12,5.79-3.58,1.13-7.17,2.15-11,2-.76.28-2.2.5-2.07-.18C254.2,156.56,251.65,151.44,254,146.61Z"/><path class="cls-31" d="M242.35,163.75c-.76-.41-2.48.35-2.33-.86.65-5.09-1.26-10.33,1-15.3.29-.18.6-.46.88-.41,2.83.41,7.1-1.72,8.23,1.11,1.54,3.82.8,8.52,0,12.7-.37,1.83-3.39,1.53-5.06,2.52Z"/><path class="cls-32" d="M178,149.52c-4.33,6.9.12,14.3-1.15,21.4-.13.76,1.36.54,2.14.57l3.37.19a97.67,97.67,0,0,1-17.13,2c-.4-.38-1.94.5-1.24-1.11,1.71-1.79,5.21-1.18,6-4,1.08-4,1.07-8.17,1.28-12.28.1-1.85-1.23-3-3.12-3.26-1.47-.21-3-.27-4.14-1.43l-1-1C168,149.44,173,149.49,178,149.52Z"/><path class="cls-33" d="M197.36,169.73l-3.33-.18a13.85,13.85,0,0,0,3.75-10.38c-.11-4.62-.43-8.41-5.76-9.58v-1a43.56,43.56,0,0,1,13-.88c-.62.87-1.31,1.44-1.23,2.91.3,5.25.24,10.53.08,15.79,0,1.43,0,2.22,1.55,2.31C202.83,169.92,200.09,169.79,197.36,169.73Z"/><path class="cls-34" d="M266.28,159.71c-2.59-1.38-1.23-3.92-1.11-5.61.29-4.18-.68-6.86-5.17-7.45,3.64-1.15,7.37-.27,11.05-.54a6.48,6.48,0,0,1,3,1.08c1.42,2.37.62,5,.15,7.28s1.41,2.12,2,3.19A25.13,25.13,0,0,1,266.28,159.71Z"/><path class="cls-35" d="M245,163.51c3.63-1.39,4.32-4,4.12-7.74-.44-8.17-.16-8.18-8.13-8.18l-2.81-.13v-.85H254c.47,4.88,1.29,9.76,0,14.65,0,0,.84.28,1.29.42C252,163,248.49,163.17,245,163.51Z"/><path class="cls-36" d="M276.17,157.66c-3.41.31-2.76-2.4-3.15-4.28-.43-2,.7-3.85,1-5.79,2.78-2.17,5.72-.48,8.55-.22,1.58.14,1.69,1.69,1.71,3.12,0,1.83-1.35,3.38-.92,5.25A16.59,16.59,0,0,1,276.17,157.66Z"/><path class="cls-37" d="M283.33,155.74c-3.31-.72-.66-3.6-.55-3.88,1.54-3.71-.15-4.43-3.33-4.28-1.82.08-3.64,0-5.46,0a2.1,2.1,0,0,1-2-.93c2.79-1,5.61-.61,8.43-.2,3.05-.38,5.94.48,8.79,1.33a3.51,3.51,0,0,1,2.79,2.57c.25,1.6-1.1,2.42-2.24,2.95C287.69,154.27,285.48,155,283.33,155.74Z"/><path class="cls-35" d="M280.43,146.46l-8.43.2H260l-4-.07c0-.27,0-.53,0-.8C264.14,145.81,272.32,144.92,280.43,146.46Z"/><path class="cls-38" d="M1.06,177.47q0,9.72-.08,19.45A46.87,46.87,0,0,1,1.06,177.47Z"/><path class="cls-39" d="M267.47,91a2.9,2.9,0,0,1-2.39,2.32,1.55,1.55,0,0,1-1.73-1.43c-.15-1.14.63-1.81,1.7-2.06A2.12,2.12,0,0,1,267.47,91Z"/><path class="cls-23" d="M224,146.77c-4.28,1.76-8.72.47-13.08.73C215.2,146.34,219.58,146.5,224,146.77Z"/><path class="cls-20" d="M107,154.77c-1.94,1.51-4.16.58-6.26.72A12.59,12.59,0,0,1,107,154.77Z"/><path class="cls-27" d="M185.05,171.46c1.6-1.54,3.55-.69,5.36-.78A9.58,9.58,0,0,1,185.05,171.46Z"/><path class="cls-14" d="M97,155.72c-1.52,1.47-3.37.7-5.09.76C93.5,155.38,95.27,155.62,97,155.72Z"/><path class="cls-40" d="M164,151.59c9.34,0,9.54.25,8.12,9.41a26.5,26.5,0,0,0-.12,3.46c-.07,6.88-1.15,8-8,8.11Z"/><path class="cls-41" d="M192,149.59c7,0,7,0,7,6.92a38.38,38.38,0,0,0,0,5.47c.61,4.13-.42,7-5,7.57-1.09-.15-1.93-.63-1.94-1.85C192.05,161.66,192,155.63,192,149.59Z"/><g id="layer2"><g id="g463"><path id="path28712-2" class="cls-42" d="M387.15,0a37.66,37.66,0,0,0-18.24,4.2A32.92,32.92,0,0,0,355.2,18.47c-3,6-4.15,12.42-4.33,19.48a397,397,0,0,0,1.32,40.23c.27,3.88.75,6.16.26,10.14-1.66,8.47-9.08,14.17-13,21.62-4.36,8.21-6.2,17.49-9.49,26.18-3,8-7.23,15.42-10.09,23.43-4,11.2-5.18,23.52-2.54,35.11a60.5,60.5,0,0,0,11.86,24.23c-.82,1.47-1.61,3-2.46,4.42-2.62,4.53-5.82,8.83-7.32,13.84a16.57,16.57,0,0,0-.55,7.75,11.13,11.13,0,0,0,3.82,6.67,11.75,11.75,0,0,0,4.63,2.14,20.78,20.78,0,0,0,5.1.44c6.51-.14,12.81-2.12,19.11-3.77q5.6-1.47,11.26-2.63c13.41-2.74,28.37-1.65,40.82.16,4.22.63,8.4,1.47,12.55,2.47,6.49,1.58,12.95,3.58,19.63,3.77a21.37,21.37,0,0,0,5.24-.41,11.74,11.74,0,0,0,4.76-2.17,11.15,11.15,0,0,0,3.83-6.68,16.67,16.67,0,0,0-.57-7.77c-1.51-5-4.74-9.3-7.42-13.81-1.06-1.77-2-3.6-3.09-5.38a88.26,88.26,0,0,0,18.31-31c4.1-12.56,4.85-26.08,3.13-39.18a134.34,134.34,0,0,0-11.35-37.82C441.73,94.81,436,89.36,431.78,76.12c-4.52-14.31-.78-31.24-4.14-44.22a45.47,45.47,0,0,0-5.57-12.49A42.74,42.74,0,0,0,411.2,7.7,42,42,0,0,0,387.15,0Z"/><path id="path29719-5" class="cls-43" d="M362.42,75.55a10.43,10.43,0,0,0-1.88,4,20.84,20.84,0,0,0-.55,4.38c-.11,3,.07,6-.72,8.8-.83,3.05-2.7,5.68-4.53,8.25-3.17,4.46-6.38,9-7.94,14.26a25.28,25.28,0,0,0-.93,9.82,104.14,104.14,0,0,0-9.17,16.53,90.5,90.5,0,0,0-7.44,27.57,70.31,70.31,0,0,0,5,34.4A56.26,56.26,0,0,0,348.9,224a50.22,50.22,0,0,0,10.72,7.12c13.38,6.58,29.92,6.59,43.09-.42,6.87-3.67,12.68-9,18.28-14.45a64.13,64.13,0,0,0,9.3-10.53C435.24,198.15,437,189,438,180c1.88-15.69,1.94-32.27-4.94-46.49a51.42,51.42,0,0,0-9.31-13.32,73,73,0,0,0-5.89-19.83c-2.09-4.54-4.63-8.86-6.57-13.46-.8-1.89-1.49-3.82-2.37-5.67a17.22,17.22,0,0,0-3.45-5A14.17,14.17,0,0,0,400.1,73,23.64,23.64,0,0,0,393.91,72c-4.19-.21-8.39.34-12.59.18-3.33-.14-6.66-.72-10-.53a15.36,15.36,0,0,0-4.88,1,9.89,9.89,0,0,0-4,2.9"/></g><g id="g562"><path id="path4400-1" class="cls-44" d="M347.65,117.59c.9,1.34-.55,6,20.28,3a73.75,73.75,0,0,0-7.27,1.24c-5.6,1.88-10.49,4-14.26,6.75s-6.46,6.33-9.89,9.41c0,0,5.55-10.13,6.93-13.18s-.23-2.91.86-7.4a35.39,35.39,0,0,1,3.78-8.81S345.89,115,347.65,117.59Z"/><path id="path4400-2-8" class="cls-45" d="M414.63,116.38c-4.24,3-6.73,2.61-11.88,3.19s-19.09.36-19.09.36a37.62,37.62,0,0,1,6.49.8c4.47.83,13.6,1.63,18.73,3.59s7,2.51,10.14,4.48c4.44,2.81,7.7,7.21,12,10.29a15.11,15.11,0,0,0-1.51-7.13c-1.71-3.06-6.33-7.86-7.68-12.35s-2-13.32-2-13.32-.9,7.13-5.15,10.09Z"/><path id="path4491-9" class="cls-46" d="M374.71,110.07c-.16,1.28-.36,2.55-.61,3.82a10.65,10.65,0,0,1-.5,1.84,4.07,4.07,0,0,1-1,1.58,5.39,5.39,0,0,1-1.42.86,21.36,21.36,0,0,1-6.26,1.78c.87.06,1.73.14,2.59.23a12.55,12.55,0,0,1,1.61.26,4.41,4.41,0,0,1,1.48.67,4,4,0,0,1,1.14,1.36,8.65,8.65,0,0,1,.86,3.44,28.93,28.93,0,0,1,0,4.56,13.84,13.84,0,0,1,.63-3,13.06,13.06,0,0,1,2.75-4.74,10.19,10.19,0,0,1,1.63-1.45,9.06,9.06,0,0,1,6.37-1.55,9.93,9.93,0,0,1-6.33-2,8.07,8.07,0,0,1-2.27-2.56,7.11,7.11,0,0,1-.66-5.15"/><path id="path4542-7" class="cls-47" d="M369.28,140a77.75,77.75,0,0,0-2.22,12.56c-.56,6-.43,12-.75,18-.27,5.11-.87,10.26,0,15.29a26.38,26.38,0,0,0,2.24,6.93,21.73,21.73,0,0,0,.37-2.53c.38-4.08-.31-8.17-.54-12.26-.41-7.17.59-14.33,1-21.5a132.13,132.13,0,0,0-.11-16.53h0"/><path id="path28767-9-3" class="cls-48" d="M350,99.48c-.1-1.27-1.91-1.46-2.71-.83s-1.32,2.35-.73,3.06C347.5,102.87,350.13,101.21,350,99.48Z"/><path id="path15189-4" class="cls-49" d="M441,134c1-.16,7.49,5.32,6.61,7.36s-2.54.81-3.72.82-4.43,1.49-5,.56,1.43-3.1,2.47-4.91c.83-1.46-1.43-3.67-.39-3.83Z"/><path id="path28767-3" class="cls-50" d="M401.61,11.36c-2.26,1.59-1.27,3.58-.3,5.57s-2.14,7.75-2.17,8,6.11-2.92,7.78-5c2-2.43,7,3.28,6.7,2.41C413.62,20.82,403.86,9.77,401.61,11.36Z"/><path id="path4596-3" class="cls-51" d="M418.71,78.24c-1.9,1.73.9,4.33,2.22,7.39.82,1.9,3.1,4.58,5.31,4.15,1.66-.32,2.69-2.71,2.53-4.39-.3-3.25-3-4-5-5.12C422.16,79.39,420.05,77,418.71,78.24Z"/><g class="cls-52"><path id="path28461-8-7" class="cls-53" d="M360.37,91.2a24.77,24.77,0,0,0,8.08,11,17.88,17.88,0,0,0,3.84,2.48,9.14,9.14,0,0,0,4.45.86A10.72,10.72,0,0,0,381,104c1.3-.74,2.51-1.63,3.77-2.43,2.17-1.37,4.49-2.48,6.74-3.71a38.81,38.81,0,0,0,7.62-5.25,35.29,35.29,0,0,1,3.18-2.81,6.27,6.27,0,0,1,4-1.32,24.37,24.37,0,0,1,3.09.75,4.41,4.41,0,0,0,1.58.09,2.29,2.29,0,0,0,2-2.48,4.42,4.42,0,0,0-.56-1.86,24.6,24.6,0,0,1-1.93-3.37,10,10,0,0,1-.26-3.45,6.86,6.86,0,0,0-.53-3.39A4.47,4.47,0,0,0,407.78,73a6.78,6.78,0,0,0-2.53-.7,34.6,34.6,0,0,0-5.28.27c-2.34.14-4.68-.16-7,0-2.91.18-5.77,1-8.68,1-3.34,0-6.66-1.08-9.95-.56a25.12,25.12,0,0,0-4.12,1.19A12.79,12.79,0,0,1,366,75c-1.62,0-3.19-.59-4.81-.7a5.73,5.73,0,0,0-2.4.28,3.08,3.08,0,0,0-2.16,2.87,4.68,4.68,0,0,0,.16,1.39,21,21,0,0,0,1,2.61c1.23,3.12,1.49,6.55,2.59,9.72"/></g><g class="cls-52"><path id="path28461-84-3" class="cls-54" d="M356.19,78.82a33.93,33.93,0,0,1,7.71,6.52c2,2.34,3.77,5,6.43,6.72a14.17,14.17,0,0,0,6.41,2.12,22.71,22.71,0,0,0,8-.85,29.45,29.45,0,0,0,6.85-2.77c4.05-2.3,7.42-5.67,11.89-7.18,1-.33,2-.57,2.92-1a4.51,4.51,0,0,0,2.27-1.88,8.5,8.5,0,0,0,.56-2.7c.15-1,.49-1.91.67-2.88a4.47,4.47,0,0,0-.25-2.89,3.86,3.86,0,0,0-1.85-1.69,6.69,6.69,0,0,0-2.55-.58,40.65,40.65,0,0,0-5.27.49c-2.33.19-4.68-.08-7,0-2.91.08-5.78.69-8.68.81-3.32.15-6.63-.33-9.95-.44a22.06,22.06,0,0,0-4.3.2,11.09,11.09,0,0,0-4,1.4,34.93,34.93,0,0,0-3.17,2.51,10.21,10.21,0,0,1-1.72,1.09,5.29,5.29,0,0,1-2,.52,9.74,9.74,0,0,0-1.08,0,2.32,2.32,0,0,0-1.49.86,2,2,0,0,0-.37,1.58h0"/></g></g><g id="g481"><path id="path29705-5-0" class="cls-42" d="M443.71,129.78a28.14,28.14,0,0,1,9.8,17.6,42.68,42.68,0,0,1-.9,16,130.89,130.89,0,0,1-4.87,15.31,30.33,30.33,0,0,0-1.75,6.15,10.21,10.21,0,0,0,.91,6.24,9.51,9.51,0,0,0,5.71,4.33,13.69,13.69,0,0,0,7.16.09c2.35-.58,6.3-1.34,8.21-2.83,4.85-3.76,6-10.31,7.16-16.05,1.2-6,.61-12.28-.45-18.33a122.79,122.79,0,0,0-6.93-24.11,84.09,84.09,0,0,0-8.61-16.3c-3.39-5-8.19-8.87-11.74-13.75-1.23-1.69-2.71-3.46-3.93-5.17-2.61-3.7-2-3-3.64-5.4-1.17-1.73-3-2.33-5-3.09A9.86,9.86,0,0,0,428.7,90a9.73,9.73,0,0,0-6,5.35,14.06,14.06,0,0,0-.91,8.11,29,29,0,0,0,4,9.85,35.55,35.55,0,0,0,7.51,9.37c3.23,2.69,7.13,4.46,10.4,7.09"/><path id="path14967-1-0" class="cls-42" d="M342.86,103c-6.22,7.07-12.62,13.92-16.14,21.56-1.74,3.89-2.56,8.1-3.75,12.19a92.1,92.1,0,0,1-5.25,13.49c-1.91,4-4,8-6.11,11.91-1.53,2.86-3.08,5.79-3.61,9a18.4,18.4,0,0,0,.47,7.63,35,35,0,0,0,2.85,7.13,70,70,0,0,0,21.32,24.56A75.45,75.45,0,0,0,345.49,218a19.94,19.94,0,0,0,7.72,2.16,9.52,9.52,0,0,0,3.94-.74,7,7,0,0,0,3.06-2.54,7.32,7.32,0,0,0,1-4.76,11.46,11.46,0,0,0-1.68-4.63c-2.1-3.45-5.42-5.94-8.62-8.42q-10.35-8-19.95-16.93a25.81,25.81,0,0,1-4.87-5.52,20.79,20.79,0,0,1-2.34-6.77,37.58,37.58,0,0,1,1.29-19.48c.86-2.42,2-4.74,3.09-7.07a86.63,86.63,0,0,1,6.2-11.85c3.12-4.6,7.28-8.5,9.81-13.44,2.15-4.17,3-8.86,3.84-13.48.65-3.61,1.89-7.14,2.53-10.76-1.24,2.35-5.23,6.2-7.67,9.26Z"/></g><g id="g514"><g class="cls-55"><path id="path29705-9" class="cls-51" d="M431.11,121.48c.44.41.88.83,1.35,1.21,3.28,2.69,5,5.71,8.36,8.34,5.45,4.31,11,11.74,12.05,18.53.84,5.29-.27,8.17-1.61,14.42s-5.17,15.08-7.24,21.11c-.82,2.4,1.67,1.41,1.34,3.94a15.6,15.6,0,0,0,0,3.74c0-.23,0-.48.06-.72A46.19,46.19,0,0,1,448,182c2.22-6.27,4.76-12.41,6.51-18.84a35.28,35.28,0,0,0,.65-16.58A27.85,27.85,0,0,0,444.24,129c-4.05-3-8.82-4.92-13.13-7.54Z"/></g><g class="cls-56"><path id="path15007-0" class="cls-57" d="M335.7,128.74a29.28,29.28,0,0,0-5.24,6.44c-2.35,3.92-3.73,8.33-5.43,12.57-1.27,3.16-2.75,6.33-2.93,9.73-.09,1.75.17,3.49.22,5.24a9.7,9.7,0,0,1-.95,5.08,6.18,6.18,0,0,1-3.29,2.77,9.77,9.77,0,0,1,4.7,3.4c1,1.32,1.6,2.86,2.46,4.27a11.38,11.38,0,0,0,2.58,3,7.45,7.45,0,0,0,3.63,1.6,6.38,6.38,0,0,0,5.07-1.63,119.16,119.16,0,0,1,4.53-47.33,12.94,12.94,0,0,0,.68-2.94,4.18,4.18,0,0,0-.73-2.86,3.1,3.1,0,0,0-5.3.63h0"/></g></g><g id="g457"><g id="g444"><path id="path14483-7-4" class="cls-58" d="M479.74,220.12a14.41,14.41,0,0,1-1.85,3.88,26.67,26.67,0,0,1-7,6.49c-4.42,3.13-9,6-13.16,9.58a65.82,65.82,0,0,0-7.6,7.88A75.86,75.86,0,0,1,444,255a21.34,21.34,0,0,1-7.91,4.87,19.18,19.18,0,0,1-10.69.23,11.09,11.09,0,0,1-6.2-3.61c-1.48-1.93-2-4.53-2.13-7.08a79.15,79.15,0,0,1,.72-13.71c.41-3.8.79-7.61.94-11.41a115.19,115.19,0,0,0-1.11-20.47,15.63,15.63,0,0,1-.24-3.42,5.55,5.55,0,0,1,1.3-3.26,5.44,5.44,0,0,1,2.85-1.56,15.91,15.91,0,0,1,3.15-.28,65.42,65.42,0,0,1,7.41,0c1.54.14,3.05.42,4.58.57a20.49,20.49,0,0,0,7.8-.64c2.76-.81,5.4-2.33,8.22-2.75a11.94,11.94,0,0,1,3.43,0,6.38,6.38,0,0,1,3.16,1.17,5.92,5.92,0,0,1,1.55,2,12.92,12.92,0,0,1,1.12,3.75,33.17,33.17,0,0,0,.54,3.48,10.23,10.23,0,0,0,2.95,4.7,27.85,27.85,0,0,0,4.48,3.28,48.84,48.84,0,0,0,4.8,2.8c.79.38,1.59.73,2.34,1.17a6,6,0,0,1,1.94,1.7,4.78,4.78,0,0,1,.74,3.5h0"/><path id="path14296-0" class="cls-59" d="M494.82,227.58c-2.31,2.74-5.52,4.55-8.71,6.18-5.44,2.77-11.09,5.21-16.2,8.55a66,66,0,0,0-9.56,7.69,76.16,76.16,0,0,1-7.77,7.05,22.23,22.23,0,0,1-9.67,4.09,23.12,23.12,0,0,1-12.58-1.9,15,15,0,0,1-7-5.48c-1.6-2.57-2-5.71-2-8.73,0-5.35,1-10.64,1.92-15.9.77-4.38,1.51-8.76,2-13.18a136.78,136.78,0,0,0,.28-24.2,18.28,18.28,0,0,1,0-4.05,5.75,5.75,0,0,1,1.78-3.56,5.82,5.82,0,0,1,3.46-1.24,18.67,18.67,0,0,1,3.73.31,76.77,76.77,0,0,1,8.7,1.51c1.8.47,3.55,1.11,5.35,1.59a24.52,24.52,0,0,0,9.21.84c3.31-.39,6.53-1.64,9.87-1.55a14.64,14.64,0,0,1,4,.7,8.59,8.59,0,0,1,3.62,2A7.92,7.92,0,0,1,477,191a16.2,16.2,0,0,1,1,4.62,38.85,38.85,0,0,0,.37,4.18,13.68,13.68,0,0,0,3.1,6.11,39.49,39.49,0,0,0,5,4.75c1.76,1.48,3.53,2.95,5.43,4.25.89.61,1.81,1.18,2.65,1.85a8.35,8.35,0,0,1,2.16,2.39,5.46,5.46,0,0,1,.47,4.29,12.25,12.25,0,0,1-2.35,4.12Z"/><g class="cls-60"><path id="path14296-3-7" class="cls-61" d="M494.56,220.64a13.57,13.57,0,0,1-2.27,3.75c-2.11,2.48-5,4.09-8,5.55-5,2.49-10.12,4.68-14.8,7.69a61.14,61.14,0,0,0-8.72,6.91,69.76,69.76,0,0,1-7.1,6.34,20.51,20.51,0,0,1-8.83,3.68,21.55,21.55,0,0,1-11.49-1.71,13.64,13.64,0,0,1-6.4-4.93,14.8,14.8,0,0,1-1.79-7.85A80.3,80.3,0,0,1,427,225.78c.71-3.93,1.39-7.87,1.82-11.85a124.51,124.51,0,0,0,.25-21.76,17,17,0,0,1,0-3.64,4.69,4.69,0,0,1,4.78-4.33,17.68,17.68,0,0,1,3.4.29,79,79,0,0,1,7.95,1.36c1.64.43,3.24,1,4.88,1.43a22.75,22.75,0,0,0,8.41.76c3-.35,6-1.47,9-1.4a14.06,14.06,0,0,1,3.69.63,7.8,7.8,0,0,1,3.31,1.82,7.53,7.53,0,0,1,1.51,2.43,11.41,11.41,0,0,1,.94,4.15,37,37,0,0,0-.09,4.46,8.38,8.38,0,0,0,1.32,3.35,24.6,24.6,0,0,0,2.21,2.87,29,29,0,0,0,4.93,5c2.15,1.56,4.71,2.47,6.94,3.93a6.5,6.5,0,0,1,1.78,1.56,4.2,4.2,0,0,1,.55,3.82h0"/></g><g class="cls-60"><path id="path14296-3-1-9" class="cls-62" d="M494.25,219.11a16.44,16.44,0,0,1-2.33,3.78,19.31,19.31,0,0,1-8.17,5.61c-5.07,1.91-10.6,2.17-15.58,4.35a53.78,53.78,0,0,0-8.53,5.23,42.41,42.41,0,0,1-7,4.07,35.37,35.37,0,0,1-8.67,2.36,26.43,26.43,0,0,1-5.68.42,12.22,12.22,0,0,1-5.49-1.52,7.65,7.65,0,0,1-3.09-3.16,11.31,11.31,0,0,1-.87-5c.05-4.61,1-9.16,1-13.76,0-4-.82-8-1.05-12-.44-7.69,1.21-15.51-.24-23.06a17.38,17.38,0,0,1-.53-3.65,5.24,5.24,0,0,1,.31-1.8,3.38,3.38,0,0,1,1-1.45,3.1,3.1,0,0,1,1.33-.58,4.63,4.63,0,0,1,1.44,0,21.24,21.24,0,0,1,2.8.8c2.65.79,5.46.78,8.16,1.37,1.69.38,3.33,1,5,1.45a22.76,22.76,0,0,0,8.64.76c3.11-.36,6.14-1.49,9.27-1.41a14.32,14.32,0,0,1,3.78.64,6.67,6.67,0,0,1,4.95,4.28,10.33,10.33,0,0,1,1,4.2c0,.75-.12,1.5-.19,2.25a6.84,6.84,0,0,0,.09,2.26,5.9,5.9,0,0,0,1,2c.43.6.92,1.15,1.37,1.74a37.43,37.43,0,0,1,3.11,5.41,16.7,16.7,0,0,0,3.6,5c2.09,1.81,4.81,2.54,7.14,4a6.11,6.11,0,0,1,1.82,1.58,4.23,4.23,0,0,1,.74,1.85,4.28,4.28,0,0,1-.18,2h0"/></g><g class="cls-60"><path id="path16493" class="cls-63" d="M428.06,185.38c2.88-.78,5.34,1.41,7.43,3.06,1.35,1.15,3.3.86,5,.92,2.74-.1,5.47.46,8.22.12,5.41-.46,10.7-1.79,16.14-2,2.59-.16,5.5-.31,7.75,1.2.9.63,2.24,3.29,3.13,2.29a7.57,7.57,0,0,0-5.22-6.24c-2.18-.35-4.39.25-6.59.06-6.53-.16-13-1.37-19.56-1-4.56,0-9.1-.17-13.65-.35-1.79-.37-2.42,1.22-3.39,1.83"/></g></g><g id="g411"><path id="path4635-1" class="cls-64" d="M313.92,178.67a8,8,0,0,1,4.49-.41,10.88,10.88,0,0,1,4.17,1.78,26.39,26.39,0,0,1,6.18,6.67c4.11,5.66,8.07,11.43,11.65,17.44,2.91,4.87,5.58,9.9,8.95,14.48,2.19,3,4.66,5.75,6.87,8.73a30.09,30.09,0,0,1,5.14,9.78,19.6,19.6,0,0,1-1.43,14,18.59,18.59,0,0,1-6.84,7.34,17.59,17.59,0,0,1-9.69,2.52c-5.38-.2-10.3-2.89-15.3-4.88-10.19-4.06-21.25-5.33-31.76-8.49-3.22-1-6.4-2.12-9.65-3a28.7,28.7,0,0,1-4.27-1.37,7.38,7.38,0,0,1-3.4-2.83,6.43,6.43,0,0,1-.82-3.33,10.65,10.65,0,0,1,.68-3.39c.79-2.18,2.06-4.15,2.92-6.3a26.32,26.32,0,0,0,1.47-11.15c-.19-3.78-.8-7.52-1.06-11.29a19.4,19.4,0,0,1,.16-5.05,7.58,7.58,0,0,1,6.38-6.48,20.71,20.71,0,0,1,4.65-.3,42.79,42.79,0,0,0,4.67,0,10.65,10.65,0,0,0,4.46-1.25,10.47,10.47,0,0,0,3.2-3,34.76,34.76,0,0,0,2.3-3.79,24.65,24.65,0,0,1,2.41-3.72,9.24,9.24,0,0,1,3.47-2.7"/><g class="cls-65"><path id="path13596-6" class="cls-66" d="M316.15,181.1a6.89,6.89,0,0,1,4.07-.27,9.66,9.66,0,0,1,3.68,1.8,23.22,23.22,0,0,1,5.15,6.4c3.49,5.66,6.91,11.38,10.13,17.21A115.54,115.54,0,0,0,347,219.16c2,2.67,4.26,5.13,6.3,7.77a26.38,26.38,0,0,1,4.74,8.74,17.22,17.22,0,0,1-1.31,12.52,16.7,16.7,0,0,1-6.33,6.61,16.24,16.24,0,0,1-8.87,2.19c-4.93-.23-9.43-2.69-14.06-4.35-8.89-3.23-18.52-3.66-27.64-6.18-3.27-.89-6.46-2.07-9.74-2.9a29.13,29.13,0,0,1-4.31-1.25,7,7,0,0,1-3.43-2.78,6.1,6.1,0,0,1-.75-3.22,10.14,10.14,0,0,1,.72-3.25c.79-2.08,2-4,2.84-6a23.51,23.51,0,0,0,1.14-10c-.23-3.36-.82-6.69-1-10.06a17.39,17.39,0,0,1,.2-4.5,7.75,7.75,0,0,1,2-4,7.88,7.88,0,0,1,4.38-2,20.43,20.43,0,0,1,4.88,0,33.44,33.44,0,0,0,4.9.23,8.24,8.24,0,0,0,7.49-4.76,35.67,35.67,0,0,0,1.74-4.06,18.92,18.92,0,0,1,1.95-4,7.59,7.59,0,0,1,3.35-2.85"/></g><g class="cls-65"><path id="path4635-2-4" class="cls-67" d="M315,177.9a6.37,6.37,0,0,1,4.06-.46,8.69,8.69,0,0,1,3.69,1.81,20.3,20.3,0,0,1,4.77,6.64c2.9,5.58,5.61,11.27,9.09,16.53,2.53,3.81,5.44,7.36,8,11.15A46.15,46.15,0,0,1,352,230.42c.78,4.07.76,8.48-1.21,12.15a13.51,13.51,0,0,1-5.86,5.63,15.12,15.12,0,0,1-8.08,1.5c-4.36-.38-8.32-2.52-12.42-4-7.28-2.65-15.15-3.29-22.64-5.29-3.16-.84-6.26-1.93-9.46-2.6a27.2,27.2,0,0,1-4.21-1,6.14,6.14,0,0,1-3.31-2.6,5.18,5.18,0,0,1-.58-2.9,9.1,9.1,0,0,1,.76-2.88c.78-1.85,1.94-3.54,2.55-5.44a16.48,16.48,0,0,0-.15-8.7,69.13,69.13,0,0,1-1.93-8.59,11.87,11.87,0,0,1,.17-3.9,6.85,6.85,0,0,1,1.85-3.41,7.74,7.74,0,0,1,4.65-1.93,22,22,0,0,1,5.12.3,27.6,27.6,0,0,0,5.12.44,8.4,8.4,0,0,0,4.8-1.58,8.26,8.26,0,0,0,2.64-4.18,30.28,30.28,0,0,0,.83-4.92,17.93,17.93,0,0,1,1.08-4.86A7,7,0,0,1,315,177.9"/></g><path id="path4792-8" class="cls-68" d="M330.49,191.82c2.29,4.15,3.69,8.91,6,13.09,2.1,3.85,4.48,7.81,6.6,11.36.95,1.58,3.15,4,5.39,7.77,2,3.42,4.06,8.18,5.2,9.78-.65-1.87-2-6.9-3.61-10.49-1.51-3.35-3.26-5.26-4.34-7.06-2.12-3.55-4.41-6.74-6.6-10.12-3-4.67-5.31-9.89-8.6-14.33Z"/></g></g><g id="g526"><path id="path29714-8-2" class="cls-69" d="M466.92,191.53a4.64,4.64,0,0,0-2.4-2.11,8.06,8.06,0,0,0-3.19-.54c-2.18,0-4.35.58-6.52.39a36.84,36.84,0,0,1-5.35-1.28,11.47,11.47,0,0,0-5.64-.13,8.37,8.37,0,0,0-4.77,3.56,11.2,11.2,0,0,0-1.54,5.09,29.14,29.14,0,0,0,.19,5.36,27.67,27.67,0,0,0,.58,3.83,10.28,10.28,0,0,0,1.56,3.53,9.55,9.55,0,0,0,4.46,3.24,12.39,12.39,0,0,0,8.91-.16A24.54,24.54,0,0,0,465,201.49a23.06,23.06,0,0,0,2.1-5.42,9.89,9.89,0,0,0,.33-2.29,4.85,4.85,0,0,0-.48-2.25"/><path id="path29714-8-3-0" class="cls-70" d="M466.92,188.76a4.48,4.48,0,0,0-2.4-1.53,10.9,10.9,0,0,0-3.19-.39c-2.18,0-4.35.42-6.52.28a47.82,47.82,0,0,1-5.35-.92,15.51,15.51,0,0,0-5.64-.1,8.64,8.64,0,0,0-4.77,2.58,6.56,6.56,0,0,0-1.54,3.67,15.32,15.32,0,0,0,.19,3.88,14.84,14.84,0,0,0,.58,2.77,6.65,6.65,0,0,0,1.56,2.55,10,10,0,0,0,4.46,2.34,16.94,16.94,0,0,0,8.91-.11A23.37,23.37,0,0,0,465,196a14.26,14.26,0,0,0,2.1-3.93,5.26,5.26,0,0,0,.33-1.65,2.69,2.69,0,0,0-.48-1.62"/></g><g id="g545"><path id="path29714-5-4" class="cls-42" d="M471.06,182.46a6.31,6.31,0,0,0-1.75-2.52,9.14,9.14,0,0,0-2.62-1.63,28.72,28.72,0,0,0-6-1.49c-1.92-.36-3.82-.8-5.75-1.13a15.75,15.75,0,0,0-6-.11,10.38,10.38,0,0,0-4.64,2.48,13.36,13.36,0,0,0-3.06,4.3,18.64,18.64,0,0,0-1.46,9.16A11,11,0,0,0,442,198a10,10,0,0,0,4.78,2.84,16.12,16.12,0,0,0,9.55-.14A25.15,25.15,0,0,0,469,191.19a14,14,0,0,0,2.25-4.76,7.14,7.14,0,0,0-.16-4"/><g class="cls-71"><path id="path29714-3-9-9" class="cls-72" d="M450,174.66a11.59,11.59,0,0,0-1.43.16,10.77,10.77,0,0,0-8.88,11.44,10,10,0,0,1,1.21-4.37,9,9,0,0,1,6.11-4.46,15.65,15.65,0,0,1,4.78.09c1.53.19,3.06.39,4.57.71a18,18,0,0,1,6.57,2.64,6.45,6.45,0,0,1,1.23,1.1,3.24,3.24,0,0,1,.75,1.46,3.49,3.49,0,0,1-.47,2.33,9,9,0,0,1-1.51,1.9c-.47.46-1,.91-1.46,1.35a16.66,16.66,0,0,0,6.41-2.37,6.26,6.26,0,0,0,2-2.06,3.82,3.82,0,0,0,.44-2.8,4,4,0,0,0-.93-1.71,8.09,8.09,0,0,0-1.48-1.26,17.61,17.61,0,0,0-8-3.05c-1.83-.34-3.68-.63-5.52-.86a24.75,24.75,0,0,0-4.38-.24Z"/></g><g class="cls-71"><path id="path29714-3-9-3-8" class="cls-73" d="M450,174.66a11.59,11.59,0,0,0-1.43.16,10.77,10.77,0,0,0-8.88,11.44,10,10,0,0,1,1.21-4.37,9,9,0,0,1,6.11-4.46,15.65,15.65,0,0,1,4.78.09c1.53.19,3.06.39,4.57.71a18,18,0,0,1,6.57,2.64,6.45,6.45,0,0,1,1.23,1.1,3.24,3.24,0,0,1,.75,1.46,3.49,3.49,0,0,1-.47,2.33,9,9,0,0,1-1.51,1.9c-.47.46-1,.91-1.46,1.35a16.66,16.66,0,0,0,6.41-2.37,6.26,6.26,0,0,0,2-2.06,3.82,3.82,0,0,0,.44-2.8,4,4,0,0,0-.93-1.71,8.09,8.09,0,0,0-1.48-1.26,17.61,17.61,0,0,0-8-3.05c-1.83-.34-3.68-.63-5.52-.86a24.75,24.75,0,0,0-4.38-.24Z"/></g></g><g id="g777"><g id="g669"><g id="g643"><path id="path28795-9-5" class="cls-74" d="M363.77,39.08A6.87,6.87,0,0,0,359.55,41a9.69,9.69,0,0,0-2.45,4c-1,3-.77,6.2-.54,9.33A27.41,27.41,0,0,0,358,62.62a11,11,0,0,0,2.27,3.58,7.91,7.91,0,0,0,3.63,2.14,7.43,7.43,0,0,0,3.94-.14,8.55,8.55,0,0,0,3.38-2.06,11.4,11.4,0,0,0,2.87-5,20,20,0,0,0,.66-5.77,24.24,24.24,0,0,0-1.11-7.18A16.32,16.32,0,0,0,370,41.94a10.57,10.57,0,0,0-2.81-2.11,7,7,0,0,0-3.41-.75"/><g id="g605"><path id="path29453-9" class="cls-42" d="M360,52.06a11.79,11.79,0,0,0,.34,5.93,9.9,9.9,0,0,0,2.09,3.35,6.79,6.79,0,0,0,2,1.58,3.46,3.46,0,0,0,4.48-1A6.28,6.28,0,0,0,370,59.8a11.91,11.91,0,0,0-.1-7,9.13,9.13,0,0,0-2.67-4.34,5.22,5.22,0,0,0-2.16-1.13,3.76,3.76,0,0,0-2.41.2,4.14,4.14,0,0,0-1.89,1.9,8.6,8.6,0,0,0-.78,2.6"/><path id="path29465-8" class="cls-75" d="M364.17,50.63c.21.56.92.76,1.32,1.21a5.16,5.16,0,0,1,1,1.43c.4,1-.4,2.57.44,3.3a.86.86,0,0,0,1,0c1-.92.78-2.77.39-4.07A5,5,0,0,0,366,49.64c-.51-.26-1.28-.48-1.71-.11A1.05,1.05,0,0,0,364.17,50.63Z"/></g><g class="cls-76"><path id="path29551-9" class="cls-77" d="M360.39,45.39a13.21,13.21,0,0,1,8-1.48,48.69,48.69,0,0,1,8.05,1.79,35,35,0,0,1,5.74,1.88,10,10,0,0,1,4.52,3.87c.16.28.31.58.48.85a2.47,2.47,0,0,0,.63.73,1.33,1.33,0,0,0,.9.3.94.94,0,0,0,.46-.13.8.8,0,0,0,.33-.35,1,1,0,0,0,.1-.54,2.45,2.45,0,0,0-.1-.54c-.66-2.43-2.23-4.48-3.42-6.69-.72-1.33-1.3-2.72-2-4a25.78,25.78,0,0,0-11.18-10.42,38.42,38.42,0,0,0-15-3.73A77.41,77.41,0,0,0,340,28.28a23.23,23.23,0,0,0-7.42,2.25,10.18,10.18,0,0,0-3,2.48A7.32,7.32,0,0,0,328,36.52a7.67,7.67,0,0,0,.44,3.7,11.4,11.4,0,0,0,1.9,3.22,47.49,47.49,0,0,0,5.47,5.13,51.71,51.71,0,0,0,5.69,4.89,12.05,12.05,0,0,0,3.38,1.6,7.9,7.9,0,0,0,3.71.18,8.72,8.72,0,0,0,3.48-1.67,18.82,18.82,0,0,0,2.77-2.73c1.7-2,3.28-4.12,5.51-5.45"/></g><path id="path28795-9-2-2" class="cls-78" d="M370.22,37.34a20.67,20.67,0,0,1,4.94,7.31c-.48-3-1.25-5.37-3.19-7.31a14.93,14.93,0,0,0-4.06-2.78,11.1,11.1,0,0,0-3.68-1,12.11,12.11,0,0,0-1.24,0c-.17,0-.31,0,.24.08a12.62,12.62,0,0,1,3.12,1A14.93,14.93,0,0,1,370.22,37.34Z"/></g><g id="g652"><path id="path28795-3" class="cls-79" d="M391.5,39.08A14.41,14.41,0,0,0,386,45.9c-1.27,3.52-.78,7.46.44,11a18.21,18.21,0,0,0,6.49,9.25,11.92,11.92,0,0,0,5.3,2.06,9.76,9.76,0,0,0,5.58-1,10.76,10.76,0,0,0,4.63-5.09A18.61,18.61,0,0,0,410,55.36a22.8,22.8,0,0,0-1.1-8.8,14.75,14.75,0,0,0-5.69-7.62,11.12,11.12,0,0,0-4.5-1.7,9.46,9.46,0,0,0-4.77.53,11.72,11.72,0,0,0-2.41,1.31"/><g id="g613"><path id="path28879-6" class="cls-42" d="M397.14,46.47a5.74,5.74,0,0,0-2.6.87,6.8,6.8,0,0,0-2,1.92A10,10,0,0,0,391,54.49a11.13,11.13,0,0,0,.56,4.09,7.78,7.78,0,0,0,2.3,3.4,6.69,6.69,0,0,0,3.89,1.51,6.49,6.49,0,0,0,4-1.15A7.18,7.18,0,0,0,404,59.81a9.53,9.53,0,0,0,1-3.21,9.9,9.9,0,0,0-.95-5.82,8.14,8.14,0,0,0-4.33-3.92,6.13,6.13,0,0,0-2.54-.39"/><path id="path28891-5" class="cls-80" d="M399.33,52.5c-.76.3-2,.11-2.3.86a1.15,1.15,0,0,0,.53,1.36,2.33,2.33,0,0,0,2.68-1.21,1,1,0,0,0-.47-1.19C399.62,52.26,399.48,52.44,399.33,52.5Z"/><path id="path28887-6" class="cls-81" d="M402.82,54.48c1-1-.72-3.73-2.09-4.84-1-.8-3.86-1.64-3.74-.77s1.42,2,2.29,2.85C400.34,52.77,402.34,55,402.82,54.48Z"/></g><g class="cls-82"><path id="path28972-5" class="cls-83" d="M382.26,48a20.93,20.93,0,0,1,7.14-3.87,19.74,19.74,0,0,1,16.17,2,56.23,56.23,0,0,1,4.61,3.53,17.74,17.74,0,0,0,5,3,7.06,7.06,0,0,0,3.08.44,5.73,5.73,0,0,0,2.62-1A6.75,6.75,0,0,0,422.76,50a9,9,0,0,0,1.13-5.46c-.34-3.76-2.46-7.08-4.24-10.41a31.05,31.05,0,0,0-1.76-3.08,17.08,17.08,0,0,0-8.79-6.12,54.88,54.88,0,0,0-10.68-2,20.13,20.13,0,0,0-4.84-.22,42.69,42.69,0,0,0-5.38,1.43c-.86.22-1.73.37-2.58.62a6.68,6.68,0,0,0-2.37,1.14,5.72,5.72,0,0,0-1.92,3.27,10.6,10.6,0,0,0,0,3.85c.4,2.55,1.36,5,1.27,7.61-.06,1.77-.62,3.51-.55,5.28a7.24,7.24,0,0,0,.22,1.54"/></g><path id="path28795-92-2" class="cls-84" d="M400,31.84a9.07,9.07,0,0,0-1.1,1.73,15.6,15.6,0,0,1,5.31,2.25,21.47,21.47,0,0,1,7.15,8.47,9.08,9.08,0,0,0,1-1.4,21.64,21.64,0,0,0-7.31-8.83A15.84,15.84,0,0,0,400,31.84Z"/></g></g><g id="g735"><path id="path28849-2" class="cls-85" d="M371.13,59.76c1.55-1.75,2.62-3.88,4.11-5.68a9.91,9.91,0,0,1,2.62-2.3,5.43,5.43,0,0,1,6.82.83,10.58,10.58,0,0,1,2.22,3.19,16.49,16.49,0,0,0,1.74,3.3,17.09,17.09,0,0,0,3,2.57A8.89,8.89,0,0,1,393.12,63a4.36,4.36,0,0,1,.87,1.78,3.65,3.65,0,0,1-.16,2,4.41,4.41,0,0,1-1.11,1.68,6.5,6.5,0,0,1-3.64,1.63c-2.67.38-5.38-.42-8.08-.34s-5.4,1-8.13.94A7.24,7.24,0,0,1,369,69.55a4.91,4.91,0,0,1-1.4-1.47,4.08,4.08,0,0,1-.6-1.94,4.33,4.33,0,0,1,.4-1.9,6.76,6.76,0,0,1,1-1.65c.82-1,1.83-1.86,2.7-2.83"/><g id="g712"><path id="path28461-2" class="cls-86" d="M356.3,76.63a2.59,2.59,0,0,0,.29.73,3.41,3.41,0,0,0,1,1c.37.27.76.49,1.15.74a20.71,20.71,0,0,1,5.21,5c2,2.57,3.76,5.42,6.43,7.29a13.53,13.53,0,0,0,6.41,2.3,21,21,0,0,0,8-.92,28.49,28.49,0,0,0,6.85-3c4.05-2.5,7.42-6.16,11.89-7.8,1-.35,2-.61,2.92-1a4.62,4.62,0,0,0,2.27-2,9.89,9.89,0,0,0,.56-2.93c.15-1,.49-2.07.67-3.13a5.25,5.25,0,0,0-.25-3.14,4,4,0,0,0-1.85-1.83,6.39,6.39,0,0,0-2.55-.63,39,39,0,0,0-5.27.53c-2.33.21-4.68-.09-7,0-2.91.09-5.78.74-8.68.89-3.32.16-6.63-.36-9.95-.49a20.7,20.7,0,0,0-4.31.2,9.89,9.89,0,0,0-4,1.54,37.69,37.69,0,0,0-3.13,2.8,8.19,8.19,0,0,1-1.73,1.19,4.62,4.62,0,0,1-2,.48,3.26,3.26,0,0,0-1.08,0,1.46,1.46,0,0,0-.56.36,3,3,0,0,0-.42.52,10.34,10.34,0,0,0-.77,1.38"/><path id="path28487-2" class="cls-87" d="M369.33,80.2a5.85,5.85,0,0,0,3.82,6.91,7,7,0,0,0,5.33-.56,5.8,5.8,0,0,0,2.35-2.09,4,4,0,0,0,.53-1.5,3.36,3.36,0,0,0-.16-1.57,3.41,3.41,0,0,0-1-1.4,4.42,4.42,0,0,0-1.52-.83,9.41,9.41,0,0,0-3.47-.32,35.71,35.71,0,0,0-5.25.66"/><path id="path27476-7-8" class="cls-88" d="M363.62,69.28c-1.18.69-2.31,1.46-3.43,2.25A4.31,4.31,0,0,0,358.71,73a3.69,3.69,0,0,0-.27,1.47,12.64,12.64,0,0,1,0,1.51,8.79,8.79,0,0,0-.15,1,1.43,1.43,0,0,0,.05.51.94.94,0,0,0,.24.45,1.36,1.36,0,0,0,.57.33c.21.06.43.09.65.14A6.48,6.48,0,0,1,362.48,80c.79.71,1.5,1.51,2.32,2.18a13.06,13.06,0,0,0,8.06,2.62,36.85,36.85,0,0,0,8.53-1.19,52.1,52.1,0,0,0,6.53-1.8,28.77,28.77,0,0,0,8.91-5.3,29.65,29.65,0,0,1,3.63-3c1.18-.74,2.5-1.23,3.7-1.94a1.69,1.69,0,0,0,.31-.21.92.92,0,0,0,.24-.28.81.81,0,0,0,0-.63,1.71,1.71,0,0,0-.31-.56,3.45,3.45,0,0,0-.5-.51,8,8,0,0,0-4.6-1.59c-1.65-.13-3.31,0-4.94-.31a33.41,33.41,0,0,1-4.46-1.3,33.44,33.44,0,0,0-4.74-1.16,31.55,31.55,0,0,0-11.42.29,33.16,33.16,0,0,0-10.15,3.94"/><path id="path27476-4" class="cls-89" d="M363.24,65.3a20.77,20.77,0,0,0-4.51,4.12,9.64,9.64,0,0,0-1.79,3,24.45,24.45,0,0,0-.58,2.7,5,5,0,0,0-.14,1,1.79,1.79,0,0,0,.07.51,1.22,1.22,0,0,0,.26.44,1.45,1.45,0,0,0,.76.38c.27,0,.56.06.85.09a8,8,0,0,1,3.51,1.5c1.07.73,2,1.58,3.13,2.27a16.4,16.4,0,0,0,8.12,2.31,36.12,36.12,0,0,0,8.47-.88,37.57,37.57,0,0,0,6.53-1.8,39.21,39.21,0,0,0,8.91-5.3,37.29,37.29,0,0,0,3.63-3c.39-.37.76-.76,1.17-1.1a4.34,4.34,0,0,1,1.38-.8,5.2,5.2,0,0,1,2.42,0,8.61,8.61,0,0,0,1.82.21,2.53,2.53,0,0,0,.9-.18,1.92,1.92,0,0,0,.74-.52,1.81,1.81,0,0,0,.39-1.12A2.32,2.32,0,0,0,409,68a3.88,3.88,0,0,0-1.85-1.49,18.3,18.3,0,0,0-3.17-.93,45.6,45.6,0,0,1-9.54-3.48c-1.51-.75-3-1.58-4.46-2.38a26.72,26.72,0,0,0-4.74-2.1,18.6,18.6,0,0,0-11.42.51,24.44,24.44,0,0,0-10.53,7.21h0"/><path id="path28357-7" class="cls-90" d="M389.29,66.11a1.6,1.6,0,0,0-.8-.52,2,2,0,0,0-.95,0,4.58,4.58,0,0,0-1.73.81,19.84,19.84,0,0,0-4,3.72,14.26,14.26,0,0,0-3.23,6.4,4.16,4.16,0,0,0-.07,1.22,1.92,1.92,0,0,0,.49,1.09,1.74,1.74,0,0,0,.95.46,2.38,2.38,0,0,0,1.06-.11A5.39,5.39,0,0,0,382.79,78c2.94-2.63,5.59-5.78,6.65-9.57a4.22,4.22,0,0,0,.2-1.17,1.9,1.9,0,0,0-.35-1.11"/><g id="g681"><path id="path28396-7" class="cls-91" d="M382.26,60.66c.2.66,1.25.55,1.86.86s1,.88,1.57.9,1.46-.2,1.53-.77c.1-.75-1-1.23-1.7-1.5a3.59,3.59,0,0,0-2.92-.06c-.19.11-.41.36-.34.57Z"/><path id="path28398-7" class="cls-92" d="M372.21,60.29c-.78-.25-2.08,1.13-1.65,1.83.11.2.47.44.7.31s.66-.9,1.05-1.18S372.51,60.39,372.21,60.29Z"/></g><g class="cls-93"><path id="path28570-8" class="cls-94" d="M409.52,70.6c-.19,1.71-1.47,3.11-2.86,3.11h0c-1.39,0-2.36-1.4-2.17-3.11s1.48-3.11,2.87-3.11,2.35,1.39,2.16,3.11Z"/></g></g></g></g></g></svg>