<svg id="Layer_1" data-name="Layer 1" xmlns="http://www.w3.org/2000/svg" viewBox="0 0 786.17 410.45"><defs><style>.cls-1{fill:#db7533;}</style></defs><path class="cls-1" d="M181.27.47c34.59,1.06,68.41,6.24,100.67,19.31,14.27,5.79,27.61,13.2,38.14,24.86,7.88,8.72,12.44,18.61,12.41,30.64-.09,48,0,96,.06,144,0,36.49-.66,73,.27,109.46.58,22.38-9.45,37.7-27,49.46-19.38,13-41.19,19.85-63.74,24.72-20.67,4.47-41.6,6.45-62.74,7.27-38,1.48-75.34-2.23-111.73-13.32-19.69-6-38.37-14.3-53.28-29.24C5,358.18.06,346.84.05,333.58Q0,204.63.09,75.67C.11,57.79,9.87,45,23.59,34.88,41,22,61,14.91,81.81,9.75c22.65-5.62,45.69-7.59,69-9.25A241.49,241.49,0,0,1,181.27.47Zm-15.2,28c-9.48.45-19,.73-28.43,1.38C113.51,31.5,89.82,35.57,67.08,44c-12,4.48-23.76,9.78-32.8,19.38-7,7.47-7.23,14.88.35,21.74A81.31,81.31,0,0,0,52.48,97.72C84.7,113.79,119.61,118,155,119.52c11.6.5,23.28-.39,34.92-.83a253.92,253.92,0,0,0,73.65-13.6c11.51-4,22.43-9.15,32-17,10.7-8.78,11.14-18.07,1-27.15-.62-.56-1.28-1.06-1.93-1.58C284.25,51.1,272.34,46,260,42,229.47,32,198,28.48,166.07,28.46ZM29.21,207.14v5.8c0,12.49.2,25-.15,37.48C28.9,256.13,30.7,260.86,35,264c7.18,5.3,14.4,10.91,22.42,14.63C84.47,291.19,113.53,296,143,297.43c18.55.9,37.23,0,55.82-.84a227,227,0,0,0,59-11c13.8-4.44,27.22-9.81,38.34-19.58,5.27-4.62,8.19-10,7.91-17.41-.44-11.82-.1-23.66-.13-35.49,0-1.71-.2-3.41-.35-5.87-43.15,24.25-89.65,30.32-137,30.35S72.49,231.5,29.21,207.14Zm0-89.19v5.84c0,12.65.18,25.32-.09,38-.11,5.11,1.45,9.44,5.25,12.34,6.82,5.19,13.64,10.79,21.31,14.43,29.92,14.24,62.11,19,94.82,19.95,18.39.52,36.87-.79,55.28-1.86s36.44-5.06,54-10.89c13.63-4.52,26.85-9.94,37.58-20,4.57-4.27,7.06-9.26,6.84-15.87-.4-12-.11-24-.12-36v-6.09C260.51,141.66,214.19,148,166.53,148S72.57,141.64,29.17,118ZM304,296.38c-43.51,24.07-90,30.34-137.54,30.38s-94-6.34-137.31-30.27c0,13.07.19,25.36-.09,37.63C29,339.38,30.35,344,34.34,347c7.55,5.61,15.11,11.63,23.57,15.52C87.38,376.05,119,380.22,151,381.57a346.55,346.55,0,0,0,63.72-2.83c19-2.71,37.59-6.68,55.4-13.92,10.22-4.15,20.05-9,28-16.9,3.94-3.91,6.15-8.45,5.94-14.26-.29-8.16-.07-16.33-.07-24.5Z"/><path class="cls-1" d="M584.17,291.55a81.77,81.77,0,0,1-27.06-13.93c-25-19.44-36.94-45.05-33.92-76.7,1.94-20.4,10.27-38,25.16-52.8,19.14-19.05,41.86-25.51,68.09-23.75,36.75,2.47,64.24,27.94,72.07,62.16,8.52,37.27-1,73.11-32.87,96.32-7.33,5.36-16.48,8.44-25.11,11.72-3.36,1.28-4.53,2.51-4.36,5.84.19,3.82-.08,7.66.07,11.49.11,3-1,4.21-4,4.15q-11-.19-22,0c-3.32.07-4.23-1.3-4.22-4.48q.15-34.75,0-69.5c0-3.35.87-4.9,4.46-4.81,6.49.17,13,.14,19.49,0,3.2-.05,4.53,1.16,4.39,4.42-.18,4.16-.07,8.33,0,12.5.05,5.29.81,5.94,5.87,4.16,8.81-3.11,14.52-9.83,19.13-17.51,14.8-24.68,9.07-57.58-13.11-75.93-13.31-11-28.18-12.7-44-6.94-27.57,10-43.12,47.57-30.7,73.9a48.49,48.49,0,0,0,18.88,21.42,7.33,7.33,0,0,1,4,7.28C584,270.57,584.17,280.56,584.17,291.55Z"/><path class="cls-1" d="M499.65,154.89c-12.31,0-23.94-.32-35.53.13a71.71,71.71,0,0,0-18.07,3c-9.11,2.8-10.79,9.5-3.92,16.08,7.18,6.88,15.18,12.92,22.87,19.25,11.29,9.3,23.29,17.81,31.77,30.1,7.91,11.48,12.15,23.76,7.79,37.59-5.42,17.18-18.7,25.58-35.17,29.75a59.11,59.11,0,0,1-13.83,1.32c-14.82.16-29.65-.05-44.47.14-3.89.05-5.25-1.1-5.1-5.1.29-7.32.18-14.66,0-22-.09-3.51,1.2-4.67,4.68-4.54,13.12.5,26.26,1.09,39.38,1a58.19,58.19,0,0,0,16.56-2.84c6.76-2.11,8.59-7,3.9-12.22-7.31-8.09-15.58-15.37-23.75-22.63-11.07-9.83-22.83-18.94-31-31.57-7-10.82-11.22-22.41-10.95-35.61a25.12,25.12,0,0,1,10.79-20.84,45,45,0,0,1,26-9.06c17.65-.41,35.31-.11,53-.3,3.89,0,5.32,1.25,5.21,5.17C499.49,139.63,499.65,147.59,499.65,154.89Z"/><path class="cls-1" d="M709.36,126.59c10.33,0,20.45,0,30.56,0,3.6,0,3.18,2.7,3.18,5q0,23.75,0,47.48c0,18.66.19,37.31,0,56-.12,12.35,8.31,21.59,19.8,21.73,6.14.08,12.26.78,18.4.85,3.29,0,5,.88,4.87,4.5-.16,8.15-.12,16.32-.06,24.48,0,3.94-1.48,5.5-5.69,5.4-12.15-.27-24.32-.09-36.48-.12-15.5,0-26.6-7.59-31.87-22.34a46.33,46.33,0,0,1-2.9-15c-.23-41.14-.14-82.29-.13-123.44C709,129.82,709.21,128.52,709.36,126.59Z"/></svg>